<?xml version="1.0" standalone="no"?>
<!DOCTYPE svg PUBLIC "-//W3C//DTD SVG 20010904//EN"
 "http://www.w3.org/TR/2001/REC-SVG-20010904/DTD/svg10.dtd">
<svg version="1.0" xmlns="http://www.w3.org/2000/svg"
 width="2048.000000pt" height="2048.000000pt" viewBox="0 0 2048.000000 2048.000000"
 preserveAspectRatio="xMidYMid meet">
<metadata>
Created by potrace 1.14, written by Peter Selinger 2001-2017
</metadata>
<g transform="translate(0.000000,2048.000000) scale(0.100000,-0.100000)"
fill="#000000" stroke="none">
<path d="M10160 17380 c-9 -6 -10 -10 -3 -10 6 0 15 5 18 10 8 12 4 12 -15 0z"/>
<path d="M10249 17384 c-2 -5 -20 -17 -40 -26 -27 -12 -39 -14 -48 -5 -8 8
-11 8 -11 -1 0 -7 -4 -12 -10 -12 -5 0 -7 7 -3 16 5 14 3 14 -15 -2 -12 -9
-19 -21 -16 -26 3 -4 -2 -11 -10 -14 -12 -4 -13 -11 -5 -31 9 -24 8 -25 -8
-12 -11 9 -14 10 -9 2 4 -7 2 -13 -3 -13 -6 0 -11 -7 -11 -15 0 -8 -5 -15 -11
-15 -8 0 -7 -6 2 -17 8 -10 9 -14 2 -10 -6 4 -14 3 -18 -3 -3 -5 -1 -10 4 -10
6 0 11 -5 11 -11 0 -6 -7 -9 -14 -6 -10 4 -13 1 -9 -8 3 -8 10 -12 17 -8 7 4
7 2 -1 -8 -8 -10 -9 -19 -3 -27 6 -7 7 -10 4 -7 -14 9 -32 -16 -28 -38 4 -21
4 -21 -5 -2 -6 14 -4 25 5 35 9 11 10 20 3 30 -9 12 -10 12 -5 -3 3 -11 0 -20
-10 -24 -8 -3 -13 -12 -10 -19 3 -7 -2 -18 -11 -23 -14 -7 -13 -10 6 -16 11
-3 18 -11 15 -17 -4 -6 -10 -5 -15 3 -7 11 -9 10 -9 -4 0 -10 -5 -15 -10 -12
-6 3 -14 -5 -19 -18 -6 -14 -15 -28 -21 -32 -5 -3 -8 -10 -5 -15 3 -4 -2 -13
-10 -20 -8 -7 -15 -17 -15 -23 0 -6 8 0 17 13 10 14 17 29 15 33 -1 5 2 6 8 2
7 -4 5 -14 -5 -27 -9 -14 -11 -26 -5 -33 6 -8 1 -11 -20 -9 -21 1 -27 -2 -23
-12 3 -8 0 -14 -5 -14 -14 0 -11 -42 3 -53 5 -5 -3 -6 -20 -2 l-30 7 25 -22
c15 -13 19 -21 10 -20 -26 4 -40 0 -40 -11 0 -5 5 -7 12 -3 7 4 8 3 4 -5 -6
-9 -11 -9 -22 0 -12 10 -13 9 -8 -6 6 -14 4 -16 -7 -10 -12 7 -12 6 -1 -7 10
-13 10 -16 0 -14 -7 0 -13 -1 -13 -4 0 -3 -11 -20 -25 -39 -13 -19 -18 -31
-11 -27 10 6 11 3 6 -13 -5 -17 -3 -20 12 -15 14 5 15 4 4 -4 -17 -12 -43 -4
-34 11 3 6 1 7 -6 3 -6 -4 -9 -11 -6 -16 3 -4 -2 -13 -10 -20 -8 -7 -12 -17
-8 -24 11 -17 12 -37 2 -30 -5 3 -7 10 -4 15 9 14 -5 11 -21 -6 -9 -8 -12 -15
-9 -15 4 0 -5 -16 -19 -35 -15 -19 -24 -35 -21 -35 4 0 0 -7 -8 -15 -9 -8 -14
-26 -13 -40 3 -20 1 -23 -11 -14 -11 10 -12 8 -7 -6 4 -10 3 -16 -2 -13 -5 3
-18 -6 -28 -20 -11 -14 -14 -22 -8 -18 7 4 12 2 12 -3 0 -6 -6 -11 -14 -11 -8
0 -17 -7 -20 -16 -6 -15 -4 -15 11 -3 16 12 17 12 6 -2 -7 -9 -10 -19 -6 -23
4 -4 0 -4 -8 -1 -9 3 -22 -2 -30 -11 -8 -10 -9 -15 -3 -11 7 4 14 1 17 -7 6
-16 -1 -26 -17 -26 -6 0 -4 5 4 10 11 7 12 10 2 10 -7 0 -20 -6 -27 -14 -11
-10 -11 -16 -2 -26 9 -10 9 -11 0 -6 -7 4 -13 3 -13 -1 0 -5 6 -15 13 -22 10
-10 8 -11 -7 -5 -15 6 -17 4 -11 -7 8 -12 6 -12 -9 0 -9 8 -16 10 -15 5 4 -24
-2 -54 -12 -54 -5 0 -7 6 -3 13 5 8 2 8 -9 -2 -17 -14 -24 -26 -9 -17 4 2 14
1 22 -5 13 -7 12 -9 -2 -9 -18 0 -22 -10 -18 -40 1 -11 -2 -10 -13 4 -12 17
-14 17 -20 3 -4 -10 1 -21 11 -27 15 -11 15 -11 -2 -6 -14 5 -17 2 -12 -10 4
-11 2 -15 -8 -11 -18 7 -28 -27 -12 -44 8 -9 8 -10 -3 -4 -11 6 -13 4 -8 -8 4
-11 2 -14 -9 -10 -11 4 -12 9 -3 19 8 10 8 14 0 14 -6 0 -11 -5 -11 -11 0 -5
-6 -7 -12 -3 -7 4 -5 -1 4 -12 16 -19 16 -20 -4 -21 -11 -1 -26 -7 -32 -14 -8
-9 -8 -10 0 -6 7 4 15 0 18 -9 4 -12 2 -15 -9 -10 -8 3 -15 1 -15 -5 0 -6 -5
-7 -12 -3 -7 4 -8 3 -4 -4 4 -6 14 -9 24 -6 14 5 14 4 3 -4 -8 -6 -20 -8 -26
-6 -7 3 -15 -1 -18 -9 -3 -7 1 -14 9 -14 7 0 11 4 8 9 -3 4 3 5 13 1 14 -6 13
-9 -12 -19 -17 -7 -34 -9 -40 -6 -5 3 -3 -3 5 -13 9 -11 10 -16 3 -11 -7 4
-21 2 -30 -4 -16 -11 -16 -11 -1 -6 10 3 20 0 24 -6 5 -7 2 -8 -6 -3 -10 6
-12 4 -7 -8 7 -19 -8 -32 -19 -16 -5 8 -3 9 6 4 9 -6 11 -4 5 4 -5 10 -13 7
-30 -10 -12 -13 -20 -26 -18 -29 3 -3 11 3 18 14 13 18 14 18 12 -2 0 -11 -4
-19 -8 -17 -3 3 -14 -2 -24 -9 -14 -10 -15 -15 -5 -21 8 -5 11 -4 7 1 -3 6 4
11 15 11 11 1 19 1 17 0 -2 -1 -15 -11 -28 -22 -14 -11 -21 -14 -17 -7 4 6 2
12 -3 12 -6 0 -11 -7 -11 -16 0 -8 -4 -13 -9 -10 -4 3 -16 -3 -26 -14 -10 -11
-15 -20 -10 -20 4 0 -4 -15 -18 -34 -14 -18 -22 -37 -18 -42 5 -5 1 -21 -8
-35 -16 -27 -20 -29 -46 -29 -8 0 -15 -7 -15 -16 0 -9 -5 -12 -12 -8 -10 6
-10 5 -1 -8 13 -15 8 -28 -11 -28 -6 0 -4 5 4 11 13 9 13 10 0 6 -8 -2 -15 -9
-15 -16 0 -6 -7 -16 -15 -22 -13 -10 -13 -10 1 -6 9 3 22 1 30 -4 12 -8 12
-10 -1 -8 -29 3 -40 -1 -38 -13 2 -7 -4 -12 -12 -13 -8 0 -15 -4 -15 -10 0 -5
9 -9 20 -8 19 3 19 2 -1 -10 -12 -6 -20 -18 -18 -25 1 -7 0 -8 -3 -2 -3 7 -10
7 -21 -2 -12 -9 -11 -6 2 10 11 12 15 22 9 22 -5 0 -18 -15 -28 -34 -11 -19
-23 -32 -28 -29 -6 3 -7 1 -3 -5 3 -5 -6 -19 -21 -31 l-28 -20 28 5 c15 2 27
1 27 -4 0 -4 -10 -8 -22 -9 -11 -1 -24 -7 -28 -13 -4 -7 -11 -11 -16 -10 -5 1
-10 -3 -12 -9 -2 -6 1 -11 8 -11 6 0 8 4 5 10 -4 6 1 7 11 3 15 -5 14 -7 -2
-16 -25 -14 -33 -27 -27 -44 3 -7 -1 -14 -8 -15 -8 0 -19 -2 -26 -2 -18 -2
-53 -38 -47 -48 3 -5 12 -4 20 3 7 6 11 16 7 22 -4 6 -1 7 7 2 9 -5 11 -4 6 3
-5 8 -1 10 10 5 15 -5 15 -7 0 -15 -9 -5 -13 -14 -10 -20 4 -7 2 -8 -5 -4 -6
4 -14 0 -17 -9 -5 -13 -9 -13 -22 -3 -12 10 -14 10 -8 1 5 -9 1 -13 -11 -13
-15 0 -16 -2 -3 -10 13 -9 13 -10 -1 -10 -8 0 -25 -13 -36 -28 -15 -21 -17
-29 -8 -29 8 0 11 5 8 10 -4 6 -1 7 6 3 15 -9 16 -8 -36 -43 -36 -25 -116
-108 -85 -89 6 4 12 2 12 -3 0 -6 -7 -11 -15 -11 -8 0 -15 -5 -15 -11 0 -5 5
-7 12 -3 7 5 8 3 4 -5 -5 -7 -14 -10 -22 -7 -12 5 -20 -18 -15 -46 0 -5 -6 -8
-15 -8 -9 0 -12 5 -8 13 4 7 3 9 -2 4 -5 -5 -10 -13 -10 -18 -1 -5 -2 -13 -3
-19 0 -5 -8 -10 -16 -10 -8 0 -15 -5 -15 -10 0 -6 -11 -20 -25 -32 -14 -12
-25 -28 -25 -35 0 -7 -5 -13 -11 -13 -6 0 -9 -6 -6 -14 3 -8 0 -17 -8 -20 -10
-3 -12 0 -9 12 5 14 4 15 -4 2 -8 -10 -8 -18 0 -27 6 -8 8 -16 4 -20 -3 -3 -6
-1 -6 5 0 7 -5 12 -11 12 -5 0 -7 -4 -4 -10 3 -5 -1 -10 -10 -10 -9 0 -14 -4
-10 -10 3 -5 13 -7 23 -3 10 3 8 -1 -6 -12 -13 -10 -21 -23 -18 -32 3 -8 2
-12 -3 -8 -5 3 -11 2 -14 -2 -2 -5 -2 -2 -1 5 2 6 -1 12 -6 12 -6 0 -10 -9
-10 -20 0 -11 -4 -20 -10 -20 -5 0 -6 8 -3 18 4 9 -5 4 -19 -13 -19 -22 -23
-33 -16 -43 8 -9 7 -11 -4 -7 -9 4 -28 -5 -44 -21 -29 -28 -16 -24 21 5 18 15
19 15 7 0 -6 -9 -8 -20 -4 -24 4 -5 2 -5 -4 -2 -7 4 -17 0 -24 -8 -7 -8 -16
-13 -20 -10 -5 3 -11 1 -14 -4 -4 -5 -1 -13 5 -17 8 -5 9 -3 4 6 -5 9 -4 11 4
6 9 -6 9 -11 0 -22 -12 -15 -23 -19 -15 -6 3 5 0 9 -7 9 -8 0 -11 -15 -11 -39
1 -21 -3 -38 -8 -38 -6 0 -8 7 -4 15 8 22 -8 18 -38 -10 -15 -14 -23 -25 -18
-25 6 0 13 -7 16 -16 5 -14 4 -15 -8 -5 -11 9 -15 8 -19 -4 -4 -9 -13 -12 -24
-8 -15 5 -15 3 2 -10 11 -8 17 -19 12 -23 -4 -4 -7 -2 -7 4 0 7 -7 12 -15 12
-8 0 -15 -7 -15 -16 0 -8 -4 -13 -9 -10 -11 7 -43 -28 -34 -37 3 -4 -1 -7 -9
-7 -10 0 -14 -8 -13 -25 2 -14 -1 -27 -5 -30 -5 -3 -7 5 -5 17 4 21 2 20 -18
-7 -12 -16 -22 -34 -22 -40 0 -5 -9 -9 -20 -8 -11 1 -14 0 -7 -3 6 -3 9 -11 5
-17 -4 -7 1 -6 10 2 12 9 17 10 17 2 0 -7 4 -10 8 -7 5 3 9 -1 9 -9 0 -11 -4
-12 -13 -4 -9 7 -19 7 -34 -1 -11 -6 -26 -8 -33 -4 -8 5 -7 2 2 -9 9 -11 10
-17 2 -17 -6 0 -10 -3 -9 -7 5 -20 -14 -49 -34 -50 -22 -2 -40 -21 -32 -34 2
-4 0 -10 -5 -13 -5 -4 -13 -1 -17 5 -4 7 -3 9 2 6 6 -3 11 3 11 14 2 17 -1 16
-20 -8 -12 -15 -21 -33 -19 -40 2 -7 -6 -13 -16 -13 -11 0 -25 -7 -32 -15 -7
-8 -9 -15 -6 -15 4 0 1 -7 -8 -15 -8 -9 -13 -23 -10 -33 5 -14 4 -14 -4 -2 -6
8 -8 18 -5 24 3 5 1 6 -5 2 -7 -4 -12 -17 -12 -28 0 -12 -3 -19 -6 -15 -10 10
-36 -22 -28 -35 5 -8 2 -9 -9 -5 -20 8 -23 -12 -4 -33 6 -8 2 -6 -10 3 -13 11
-23 14 -27 8 -4 -5 1 -14 10 -19 15 -8 15 -10 0 -15 -10 -4 -15 -3 -11 3 10
17 -12 11 -26 -7 -10 -11 -10 -14 -1 -9 6 4 12 2 12 -3 0 -6 -7 -11 -15 -11
-8 0 -15 -5 -15 -11 0 -5 -5 -7 -12 -3 -7 4 -8 3 -4 -4 4 -7 2 -12 -5 -12 -7
0 -9 -3 -6 -7 4 -3 15 1 25 10 15 14 19 14 19 3 0 -8 -5 -14 -11 -13 -5 1 -10
-4 -11 -11 0 -19 -27 -33 -41 -21 -8 7 -15 6 -20 -2 -4 -8 -3 -9 4 -5 18 11
14 -3 -7 -26 -11 -11 -17 -26 -15 -32 3 -7 -3 -19 -13 -27 -16 -13 -17 -12 -4
4 8 9 11 20 8 24 -4 3 -2 12 4 19 7 8 7 14 -1 19 -6 4 -9 1 -8 -7 2 -7 -2 -12
-9 -11 -7 2 -10 -4 -7 -12 9 -22 -5 -38 -21 -25 -10 8 -15 8 -21 -1 -4 -7 -3
-9 4 -5 16 10 26 -14 12 -27 -7 -7 -10 -7 -7 -2 3 6 -3 12 -14 12 -17 2 -17 0
-5 -13 8 -8 20 -14 27 -14 7 0 9 -3 6 -7 -4 -3 -18 0 -32 7 -14 7 -28 10 -32
7 -3 -4 2 -7 12 -7 17 0 17 -2 -3 -20 -13 -12 -19 -27 -16 -38 5 -13 4 -14 -4
-3 -6 8 -9 19 -8 25 2 6 1 8 -1 3 -3 -4 -8 -5 -12 -3 -4 3 -6 -9 -5 -25 2 -25
0 -28 -12 -18 -8 7 -17 9 -21 5 -3 -3 -2 -6 4 -6 6 0 14 -7 17 -16 5 -14 4
-15 -8 -5 -11 9 -15 8 -21 -6 -5 -10 -7 -25 -6 -33 2 -13 1 -13 -8 0 -6 9 -6
18 0 26 7 8 6 14 -1 19 -6 4 -9 1 -8 -7 2 -7 -3 -12 -10 -10 -10 2 -10 -2 -1
-20 12 -22 11 -22 -6 -8 -17 14 -18 14 -5 -10 12 -23 12 -24 -4 -11 -9 8 -19
11 -23 7 -3 -3 -2 -6 4 -6 6 0 14 -7 17 -16 5 -14 4 -15 -9 -4 -12 10 -15 9
-16 -6 -1 -11 -1 -22 0 -26 0 -5 -4 -8 -9 -8 -6 0 -8 12 -6 26 3 15 2 23 -2
19 -4 -3 -7 -12 -7 -18 0 -7 -7 -12 -15 -12 -10 0 -15 -10 -15 -32 0 -27 -2
-30 -17 -22 -12 7 -18 6 -18 -1 0 -6 -4 -8 -10 -5 -7 4 -7 -2 0 -19 7 -20 6
-24 -5 -19 -9 3 -15 -1 -15 -11 0 -9 -5 -16 -11 -16 -7 0 -6 9 4 23 12 19 13
24 2 24 -8 0 -12 -3 -10 -7 7 -11 -40 -51 -50 -43 -4 5 -5 2 -1 -5 5 -9 12
-10 20 -3 8 7 17 6 26 -1 12 -8 12 -9 -2 -4 -10 3 -20 1 -24 -5 -3 -6 -12 -8
-18 -6 -15 6 -17 -23 -4 -40 5 -7 5 -14 -2 -18 -6 -4 -9 -3 -8 2 2 4 -2 9 -7
11 -6 1 -10 -3 -10 -10 0 -6 -7 -13 -15 -15 -13 -4 -13 -3 0 6 13 9 13 11 1
11 -11 0 -10 4 4 13 14 11 15 16 5 22 -8 5 -11 4 -7 -2 4 -6 0 -14 -8 -17 -8
-3 -15 -9 -14 -13 3 -20 -2 -34 -11 -28 -5 3 -7 0 -4 -8 3 -8 0 -18 -7 -23 -7
-4 -10 -3 -6 2 3 6 -3 11 -14 11 -17 2 -17 0 -5 -13 8 -8 20 -14 27 -14 7 0
10 -3 6 -6 -3 -4 -14 -3 -24 1 -28 13 -44 14 -37 4 3 -5 11 -6 17 -3 7 4 2 -3
-10 -15 -14 -13 -20 -28 -17 -39 5 -13 4 -14 -4 -3 -6 8 -8 21 -5 30 3 12 2
12 -7 -2 -6 -9 -16 -14 -22 -11 -7 4 -8 2 -4 -4 4 -7 2 -12 -4 -12 -6 0 -8 -4
-5 -10 3 -5 -1 -10 -9 -10 -8 0 -18 -5 -22 -12 -5 -8 -2 -9 9 -5 10 3 17 2 17
-2 0 -5 -7 -11 -15 -15 -9 -3 -12 -12 -8 -23 3 -10 3 -15 -1 -11 -4 3 -9 13
-10 22 -4 27 -20 13 -19 -17 0 -26 -1 -27 -18 -11 -22 20 -26 9 -4 -12 8 -9
15 -20 15 -27 0 -6 -7 -2 -15 9 -9 12 -14 14 -15 6 0 -7 -4 -11 -9 -8 -5 3
-14 -1 -21 -9 -7 -8 -16 -13 -20 -10 -4 3 -11 -2 -14 -10 -3 -9 -17 -20 -31
-25 -14 -5 -25 -17 -25 -26 0 -11 -5 -14 -16 -10 -15 6 -15 4 -3 -11 8 -9 9
-14 2 -10 -6 4 -18 1 -26 -7 -8 -8 -18 -12 -23 -8 -5 4 -2 -1 5 -11 8 -9 11
-20 7 -24 -3 -3 -6 -2 -6 4 0 5 -7 10 -15 10 -8 0 -15 -7 -15 -15 0 -8 -6 -12
-14 -9 -10 4 -13 1 -9 -9 3 -9 -1 -14 -13 -14 -16 0 -17 -2 -4 -10 12 -8 11
-10 -7 -10 -26 0 -29 -10 -10 -29 10 -10 9 -12 -3 -9 -8 2 -14 -2 -13 -8 1 -6
-8 -11 -20 -11 -12 -1 -31 -1 -42 -2 -19 -2 -19 -3 3 -13 20 -10 31 -29 15
-27 -20 3 -34 -2 -29 -10 9 -13 -16 -20 -36 -9 -14 7 -16 5 -11 -8 4 -11 2
-15 -4 -11 -6 4 -9 -3 -8 -16 2 -20 -2 -23 -26 -21 -16 1 -26 -2 -23 -7 3 -5
9 -7 14 -4 5 3 11 1 15 -4 6 -11 -27 -7 -48 5 -6 4 -3 -3 8 -17 11 -13 13 -18
5 -11 -19 17 -45 15 -61 -4 -10 -13 -10 -17 2 -25 8 -5 9 -9 4 -9 -6 0 -17 6
-24 13 -10 10 -12 9 -9 -3 2 -8 -2 -14 -9 -13 -7 2 -17 -6 -23 -17 -6 -12 -16
-18 -23 -14 -7 4 -9 4 -5 -1 11 -11 -12 -36 -25 -28 -6 3 -7 1 -3 -6 4 -6 13
-9 19 -5 7 3 3 -1 -7 -10 -10 -8 -23 -13 -29 -9 -6 3 -7 1 -3 -6 4 -6 12 -8
18 -5 7 4 8 2 4 -4 -5 -8 -13 -9 -25 -2 -16 8 -17 6 -14 -18 3 -16 1 -22 -4
-16 -13 17 -47 13 -61 -8 -7 -10 -17 -16 -22 -13 -4 3 -14 -3 -21 -12 -8 -10
-9 -14 -2 -10 6 4 14 3 18 -3 3 -5 2 -10 -4 -10 -6 0 -8 -6 -5 -14 3 -8 1 -17
-4 -20 -5 -3 -9 2 -8 10 1 18 -30 28 -40 13 -3 -6 0 -17 8 -26 9 -12 9 -15 1
-9 -8 4 -13 2 -14 -6 0 -7 -4 -4 -9 7 -8 19 -9 19 -9 -3 -1 -13 -5 -20 -11
-17 -5 3 -10 1 -10 -4 0 -6 -5 -11 -11 -11 -5 0 -7 5 -3 11 4 8 0 7 -15 -1
-12 -6 -25 -18 -27 -25 -3 -8 -14 -17 -25 -20 -10 -4 -19 -13 -19 -21 0 -10
13 -2 34 20 18 20 37 36 40 36 4 0 0 -7 -8 -16 -9 -8 -14 -20 -10 -25 3 -5 0
-8 -8 -7 -7 2 -12 -3 -10 -10 1 -8 -2 -11 -7 -8 -5 4 -13 2 -16 -4 -5 -8 -12
-7 -23 2 -13 11 -14 11 -7 -1 6 -11 4 -13 -8 -8 -9 3 -17 1 -19 -4 -2 -6 -10
-11 -18 -12 -25 -4 -42 -18 -36 -32 6 -18 -20 -40 -29 -25 -9 14 -35 -6 -35
-27 0 -8 -5 -11 -10 -8 -6 4 -7 12 -4 18 4 7 -6 0 -23 -16 -16 -15 -33 -24
-38 -20 -4 5 -5 3 -1 -4 3 -7 -1 -13 -11 -15 -13 -2 -14 -6 -6 -11 7 -4 21 2
33 15 l22 23 -13 -27 c-6 -15 -15 -25 -19 -23 -4 3 -13 -1 -19 -9 -7 -8 -26
-13 -45 -11 -25 1 -33 -2 -29 -12 3 -7 8 -11 12 -8 4 2 8 -2 8 -10 0 -10 -4
-12 -12 -5 -7 5 -16 6 -20 2 -5 -4 -5 -2 -2 5 4 6 1 10 -7 9 -15 -2 -46 -31
-46 -43 1 -4 9 1 18 13 15 18 20 19 31 7 11 -12 10 -14 -5 -11 -12 2 -18 -2
-16 -10 1 -8 -2 -11 -7 -8 -5 4 -12 2 -15 -3 -3 -5 -15 -7 -26 -4 -11 3 -17
10 -13 16 3 6 1 7 -5 3 -6 -4 -9 -13 -6 -21 4 -8 10 -13 14 -10 5 3 11 1 14
-4 8 -13 -19 -8 -37 7 -11 10 -17 9 -27 -3 -7 -8 -17 -12 -23 -8 -6 3 -7 1 -3
-6 6 -9 11 -9 22 0 11 9 14 9 14 0 0 -7 4 -9 10 -6 6 3 7 -1 3 -10 -4 -12 -8
-13 -13 -5 -6 9 -13 9 -28 1 -15 -8 -23 -8 -28 1 -5 7 -3 8 6 3 9 -5 11 -4 6
3 -5 9 -14 7 -31 -5 -25 -19 -30 -32 -17 -49 4 -5 -1 -1 -11 9 -15 17 -17 17
-17 3 0 -10 -5 -14 -11 -10 -7 4 -20 -4 -31 -17 -17 -21 -19 -21 -14 -4 l6 20
-16 -20 c-8 -11 -20 -19 -25 -17 -6 1 -8 -2 -5 -6 7 -12 -28 -44 -38 -35 -4 5
-7 4 -6 -2 5 -25 -1 -46 -12 -39 -7 4 -8 3 -4 -5 4 -6 11 -9 16 -6 4 3 7 -3 6
-12 -2 -9 -9 -19 -17 -21 -11 -3 -12 -2 -1 6 11 7 11 10 -3 15 -9 4 -13 3 -10
-3 3 -6 1 -10 -5 -10 -7 0 -6 -5 2 -14 7 -8 16 -12 20 -10 4 2 9 0 12 -5 7
-11 -13 -9 -33 3 -10 6 -12 5 -7 -2 4 -7 3 -12 -2 -12 -5 0 -9 -7 -9 -15 0 -8
4 -12 9 -9 4 3 8 0 8 -5 0 -6 -4 -11 -10 -11 -5 0 -10 -5 -10 -11 0 -5 6 -7
12 -3 9 5 9 2 -1 -9 -12 -15 -11 -17 3 -17 9 0 16 -5 16 -11 0 -5 -5 -7 -10
-4 -12 7 -14 -8 -3 -19 5 -4 9 -12 9 -17 1 -5 2 -13 3 -19 0 -5 8 -10 16 -10
8 0 15 -5 15 -11 0 -5 -6 -7 -12 -3 -7 3 6 -12 29 -36 23 -23 47 -39 53 -35 6
4 9 1 8 -6 -2 -7 2 -14 7 -14 6 -1 28 -10 50 -20 22 -9 56 -18 77 -19 20 0 34
-4 32 -8 -3 -5 5 -9 18 -9 42 -3 66 -6 83 -12 11 -5 14 -3 9 6 -5 8 -2 7 9 -2
10 -7 37 -14 61 -15 24 0 42 -4 40 -7 -5 -9 95 -21 108 -13 6 4 8 3 5 -3 -4
-6 9 -13 31 -16 20 -3 48 -8 62 -12 14 -3 48 -7 77 -9 28 -2 56 -7 62 -10 5
-3 12 0 14 6 4 10 6 10 6 1 1 -8 15 -13 37 -13 25 0 33 3 28 13 -6 9 -5 9 7 0
22 -18 63 -20 77 -3 8 8 11 9 7 3 -3 -7 0 -14 7 -14 40 -4 238 -3 238 1 0 3
34 4 75 3 58 -2 74 1 68 10 -5 9 -4 9 8 0 11 -9 154 -12 154 -4 0 1 32 4 71 6
87 4 196 16 207 22 18 11 4 -15 -28 -52 -19 -22 -39 -45 -44 -52 -7 -8 -5 -13
6 -17 22 -9 -4 -39 -29 -33 -10 3 -16 1 -13 -3 3 -5 -1 -11 -7 -13 -7 -3 2 -4
19 -3 18 2 30 -1 27 -6 -3 -5 -11 -8 -17 -7 -28 3 -37 -2 -37 -22 0 -19 -1
-19 -16 -5 -19 19 -31 21 -15 3 6 -8 8 -17 4 -20 -3 -4 0 -7 8 -7 9 -1 7 -5
-6 -13 -20 -11 -25 -13 -45 -16 -5 0 -10 -6 -10 -12 0 -5 4 -8 8 -5 5 3 9 -2
9 -10 0 -10 -4 -11 -10 -5 -6 6 -17 7 -26 2 -15 -9 -24 -11 -36 -11 -3 0 0
-10 6 -22 12 -22 11 -22 -6 -8 -17 14 -18 14 -6 -8 7 -13 10 -26 7 -30 -3 -3
-6 0 -6 6 0 7 -8 12 -17 12 -25 0 -125 -110 -120 -131 3 -12 0 -16 -9 -12 -8
3 -11 10 -7 16 3 6 1 7 -6 3 -9 -6 -9 -11 0 -22 9 -12 9 -13 -3 -9 -15 6 -40
-15 -37 -31 4 -22 -2 -35 -12 -28 -8 4 -7 9 2 15 8 5 9 9 3 9 -6 0 -17 -7 -24
-15 -10 -12 -10 -15 1 -16 8 -1 3 -4 -10 -8 -23 -6 -23 -7 -7 -24 10 -9 13
-17 7 -17 -6 0 -8 -7 -5 -15 5 -12 -1 -14 -31 -10 -35 4 -37 3 -19 -10 18 -14
18 -14 1 -15 -11 0 -15 -4 -11 -12 5 -8 2 -9 -9 -5 -10 4 -16 2 -14 -5 1 -7
-7 -14 -18 -16 -11 -2 -24 -9 -30 -14 -7 -8 -5 -9 6 -5 9 3 22 1 30 -5 11 -8
11 -9 -3 -4 -10 3 -25 -3 -34 -12 -10 -9 -20 -15 -23 -13 -3 2 -11 -7 -18 -20
-7 -13 -18 -24 -24 -24 -14 0 -29 -36 -21 -50 3 -5 -3 -3 -13 5 -17 14 -18 14
-5 -10 12 -22 12 -24 -3 -12 -13 11 -16 10 -22 -8 -4 -12 -11 -17 -18 -13 -7
4 -7 0 1 -10 15 -17 9 -37 -11 -37 -7 0 -6 4 3 10 8 5 11 13 6 17 -5 4 -11 2
-13 -5 -3 -6 -10 -9 -16 -5 -9 5 -9 3 0 -8 15 -19 1 -45 -18 -33 -10 6 -10 3
1 -11 14 -17 14 -18 -8 -6 -23 12 -23 12 -8 -11 14 -22 14 -23 -12 -24 -15 -1
-21 1 -14 3 6 3 12 9 12 15 0 6 -6 6 -15 -2 -8 -6 -14 -15 -13 -18 3 -23 -4
-33 -18 -28 -8 3 -12 2 -9 -4 3 -6 1 -10 -4 -10 -6 0 -11 -5 -11 -11 0 -5 5
-7 12 -3 7 4 8 3 4 -4 -4 -7 -15 -12 -24 -12 -9 0 -24 -5 -32 -11 -12 -9 -11
-10 5 -4 11 3 16 3 12 -1 -4 -4 -2 -13 5 -21 6 -7 8 -16 4 -20 -3 -3 -6 -1 -6
5 0 7 -5 12 -11 12 -5 0 -7 -5 -3 -12 4 -7 3 -8 -5 -4 -6 4 -9 11 -7 15 3 4
-1 8 -9 8 -8 0 -13 -2 -10 -5 2 -3 -9 -17 -25 -32 -17 -16 -30 -33 -30 -39 0
-6 13 3 29 19 15 17 32 30 37 30 4 0 -7 -15 -26 -34 -28 -27 -38 -32 -49 -23
-8 7 -12 8 -9 2 3 -5 0 -16 -8 -23 -8 -7 -14 -10 -14 -6 0 4 -9 -1 -20 -11
-19 -17 -19 -19 -3 -39 10 -12 11 -15 3 -8 -17 14 -34 16 -25 2 3 -5 -1 -10
-9 -10 -10 0 -16 -9 -17 -22 0 -13 -3 -17 -6 -10 -2 6 -9 12 -14 12 -6 0 -6
-8 1 -19 15 -29 12 -38 -5 -15 -14 19 -14 18 -15 -3 0 -13 -5 -23 -11 -23 -5
0 -7 6 -3 13 4 6 -2 3 -14 -7 -25 -21 -31 -36 -7 -16 11 9 15 9 15 1 0 -7 5
-9 13 -5 7 4 9 3 4 -2 -5 -5 -13 -10 -18 -10 -5 -1 -13 -2 -19 -3 -5 0 -10 -5
-10 -11 0 -5 8 -7 18 -4 16 5 16 5 -1 -6 -9 -6 -14 -16 -11 -22 5 -7 2 -8 -6
-3 -10 6 -12 4 -6 -10 5 -15 4 -16 -9 -5 -11 9 -15 9 -15 1 0 -7 -4 -10 -9 -6
-5 3 -12 1 -16 -5 -4 -6 -10 -8 -14 -6 -4 3 -7 -5 -7 -17 1 -17 -4 -21 -19
-19 -20 4 -20 4 0 -11 11 -9 17 -19 12 -23 -4 -4 -7 -2 -7 5 0 7 -5 9 -10 6
-8 -5 -8 -11 0 -20 8 -10 8 -15 -1 -21 -7 -4 -9 -3 -5 4 3 6 2 13 -4 17 -6 4
-8 10 -5 15 3 5 0 12 -6 16 -8 4 -9 3 -5 -4 4 -7 2 -12 -5 -12 -8 0 -8 -4 1
-15 7 -9 10 -18 6 -22 -3 -3 -6 -1 -6 5 0 20 -25 13 -50 -13 -26 -28 -35 -55
-17 -55 5 0 7 -3 4 -6 -4 -4 -13 -1 -22 6 -11 9 -15 9 -15 1 0 -7 -5 -9 -12
-5 -7 4 -8 3 -4 -5 4 -6 11 -9 16 -6 5 3 11 1 15 -5 4 -6 11 -7 17 -4 7 4 8 2
4 -5 -6 -9 -11 -9 -21 -1 -8 7 -15 7 -19 1 -3 -5 -3 -11 1 -14 5 -2 2 -2 -4
-1 -19 5 -52 -36 -46 -55 4 -13 3 -14 -5 -1 -7 9 -8 18 -1 26 7 8 6 14 -1 19
-6 4 -9 1 -8 -7 2 -7 -2 -12 -9 -11 -8 2 -9 -6 -3 -27 8 -28 7 -29 -13 -19
-16 9 -22 9 -25 0 -2 -6 -9 -8 -14 -5 -7 4 -8 2 -4 -5 6 -9 11 -9 21 -1 10 8
15 8 21 -1 4 -7 3 -9 -4 -5 -6 3 -13 2 -17 -4 -3 -5 -1 -10 6 -10 7 0 10 -3 7
-6 -4 -3 -16 0 -28 6 -15 8 -20 8 -16 1 4 -6 3 -11 -3 -11 -5 0 -17 -7 -25
-16 -12 -11 -13 -20 -6 -34 9 -17 7 -18 -20 -10 -21 6 -29 5 -27 -3 1 -7 -4
-11 -11 -9 -8 1 -11 -2 -7 -8 5 -7 11 -8 19 -1 8 7 17 6 26 -1 13 -8 12 -9 -1
-5 -23 7 -60 -29 -53 -51 5 -14 4 -15 -5 -2 -6 8 -11 11 -11 6 0 -5 -6 -3 -14
3 -12 10 -13 8 -9 -8 5 -18 -7 -28 -21 -18 -2 1 -13 -7 -25 -17 -15 -14 -18
-22 -10 -32 7 -9 6 -14 -2 -20 -8 -4 -9 -3 -5 4 4 7 2 12 -3 12 -12 0 -15 -26
-3 -33 4 -2 2 -3 -4 -1 -19 4 -54 -35 -48 -54 5 -13 4 -14 -4 -3 -6 8 -8 21
-5 30 4 9 -4 4 -16 -12 -13 -15 -27 -25 -32 -21 -5 3 -8 0 -7 -8 2 -7 -2 -12
-9 -11 -14 3 -27 -32 -18 -47 3 -5 2 -10 -4 -10 -6 0 -8 -8 -5 -18 5 -13 4
-14 -4 -3 -6 8 -8 20 -5 27 2 6 0 15 -6 19 -7 4 -8 0 -4 -11 4 -12 3 -15 -6
-10 -15 10 -63 -32 -54 -47 4 -6 0 -8 -10 -4 -20 7 -23 -8 -4 -17 6 -3 2 -3
-10 0 -21 5 -33 -9 -15 -19 4 -2 1 -2 -6 -1 -18 5 -27 -23 -13 -40 10 -12 9
-14 -6 -12 -11 2 -17 10 -15 22 3 18 3 18 -11 -1 -9 -11 -21 -20 -29 -20 -7 0
-13 -7 -13 -15 -1 -8 -6 -14 -12 -13 -5 1 -10 -8 -9 -20 1 -12 8 -21 15 -19 7
1 9 -2 6 -9 -5 -8 -10 -8 -18 0 -17 17 -31 13 -17 -4 11 -13 10 -14 -4 -9 -9
3 -16 11 -16 18 0 6 -5 3 -11 -7 -6 -9 -15 -14 -21 -11 -6 4 -8 3 -5 -3 4 -6
-1 -19 -9 -29 -14 -17 -15 -17 -10 -1 4 11 2 16 -5 12 -6 -4 -8 -13 -5 -21 3
-7 1 -16 -5 -20 -6 -3 -8 -12 -5 -19 3 -9 -3 -12 -20 -10 -16 1 -24 -3 -24
-14 0 -14 -2 -14 -10 -1 -8 13 -10 12 -10 -2 0 -10 -4 -18 -10 -18 -5 0 -7 7
-3 16 3 9 -6 4 -20 -10 -14 -14 -32 -26 -38 -26 -7 0 -10 -3 -7 -6 4 -3 15 -1
25 5 15 7 20 7 20 -4 0 -7 -7 -11 -15 -7 -10 3 -13 1 -8 -6 5 -8 1 -10 -10 -5
-13 5 -16 2 -12 -9 4 -9 0 -15 -8 -15 -9 0 -13 6 -9 16 5 13 4 13 -6 4 -9 -9
-9 -16 -1 -26 12 -14 6 -27 -12 -27 -7 0 -7 3 0 8 8 5 7 11 -4 22 -14 13 -15
12 -9 -3 3 -9 0 -23 -8 -31 -8 -7 -12 -16 -9 -18 2 -3 -2 -11 -10 -17 -11 -10
-20 -10 -36 -1 -20 11 -21 10 -15 -9 5 -16 3 -20 -9 -15 -9 3 -13 11 -9 18 4
8 3 8 -5 1 -7 -6 -13 -22 -14 -36 -1 -14 -7 -26 -13 -27 -28 -3 -46 -9 -58
-21 -10 -11 -8 -12 11 -6 13 4 22 2 22 -4 0 -6 -3 -10 -7 -10 -21 3 -33 -2
-27 -13 4 -7 3 -8 -5 -4 -6 4 -9 12 -6 17 4 5 1 9 -4 9 -15 0 -14 -23 2 -40 6
-8 2 -6 -10 4 -13 10 -20 24 -16 30 4 6 -3 3 -14 -7 -11 -9 -24 -14 -28 -10
-5 5 -3 -1 5 -11 14 -18 13 -19 -11 -14 -23 4 -25 2 -24 -29 1 -18 0 -31 -3
-28 -3 3 -12 -1 -20 -8 -13 -10 -14 -9 -3 11 7 13 10 26 7 29 -3 3 -9 -3 -13
-13 -3 -10 -12 -23 -20 -27 -7 -4 -13 -14 -13 -21 0 -7 -7 -13 -15 -13 -17 0
-20 13 -5 20 6 3 5 4 -2 3 -7 -2 -12 -13 -11 -25 2 -11 -2 -21 -8 -21 -5 0 -7
5 -4 10 3 6 -1 10 -10 10 -12 0 -15 -5 -11 -16 6 -15 4 -15 -11 -3 -9 8 -14
10 -11 4 3 -5 1 -23 -6 -40 -10 -25 -13 -26 -19 -12 -4 10 -3 16 1 13 5 -3 9
1 9 8 0 18 -24 9 -31 -10 -3 -9 -11 -12 -17 -8 -8 4 -9 3 -5 -5 6 -9 11 -9 22
0 12 10 13 9 8 -5 -4 -11 -13 -14 -30 -10 -27 7 -58 -12 -47 -29 4 -6 -2 -8
-16 -4 -13 3 -20 3 -17 0 3 -3 0 -15 -6 -27 -7 -11 -11 -24 -10 -28 2 -9 -26
-4 -35 7 -4 4 -3 5 4 1 7 -4 17 3 23 16 10 21 10 21 -3 6 -8 -10 -16 -15 -19
-13 -3 3 -11 -2 -19 -12 -12 -14 -12 -16 0 -8 9 5 12 4 7 -3 -4 -6 -13 -9 -21
-5 -10 3 -15 -2 -15 -17 0 -12 -4 -18 -10 -15 -6 4 -7 11 -4 17 4 7 2 8 -4 4
-9 -5 -9 -13 -2 -26 14 -26 12 -37 -2 -17 -13 17 -55 17 -51 0 1 -5 -13 -17
-32 -27 -18 -10 -36 -27 -38 -38 -3 -11 -10 -17 -16 -13 -7 4 -8 -1 -4 -12 6
-16 5 -16 -10 -4 -15 12 -17 12 -11 -4 6 -14 4 -16 -6 -10 -10 6 -12 2 -8 -18
3 -15 2 -24 -3 -22 -4 3 -10 -1 -13 -7 -3 -7 -4 -2 -1 12 5 25 5 25 -6 3 -7
-13 -16 -23 -21 -23 -5 0 -6 -5 -3 -10 4 -6 10 -8 14 -6 4 3 8 -1 8 -9 0 -11
-4 -12 -13 -4 -8 7 -14 7 -19 -1 -3 -5 -2 -10 3 -10 6 0 13 -7 16 -16 5 -14 4
-15 -8 -5 -11 9 -16 9 -22 0 -4 -7 -3 -9 3 -6 6 4 14 0 17 -9 4 -12 2 -15 -9
-10 -8 3 -15 1 -15 -4 0 -6 8 -10 18 -10 14 0 15 -2 2 -10 -12 -8 -12 -10 5
-11 l20 0 -20 -9 c-11 -5 -16 -9 -11 -9 5 -1 3 -8 -4 -16 -11 -13 -10 -14 2
-10 9 4 18 0 21 -9 4 -10 1 -13 -9 -9 -7 3 -14 0 -14 -6 0 -6 5 -11 10 -11 6
0 10 -11 10 -24 0 -16 7 -27 20 -31 11 -4 18 -10 15 -14 -7 -12 32 -44 43 -37
5 3 9 -1 8 -10 0 -10 22 -29 59 -50 54 -30 102 -48 65 -24 -10 7 -11 10 -2 10
7 0 15 -7 19 -16 3 -8 12 -13 19 -10 8 3 14 0 14 -7 0 -8 4 -6 10 3 7 10 10
11 10 2 0 -21 47 -37 65 -22 13 11 14 10 9 -4 -5 -14 -2 -17 12 -15 10 2 24 0
30 -3 6 -4 25 -10 42 -13 17 -3 42 -9 55 -14 13 -5 38 -8 55 -7 17 1 29 -2 26
-6 -3 -4 1 -8 10 -8 8 0 22 -3 32 -7 12 -5 15 -3 9 6 -5 9 0 8 16 -2 29 -18
51 -22 214 -42 22 -2 65 -8 95 -12 30 -5 92 -8 137 -8 46 0 83 -2 83 -5 0 -3
23 -5 50 -5 39 0 49 3 45 14 -4 11 -2 11 8 2 14 -11 170 -13 163 -2 -2 3 23 4
56 3 35 -2 58 0 55 5 -4 5 0 10 8 10 8 0 12 -3 10 -6 -2 -4 28 -2 65 3 38 5
67 12 65 16 -2 3 10 4 27 2 24 -4 29 -2 23 9 -7 11 -6 12 6 2 11 -9 25 -10 47
-4 17 5 33 7 36 3 3 -3 6 0 6 7 0 7 10 10 26 7 21 -4 25 -2 19 12 -5 14 -4 15
6 5 14 -14 43 -18 35 -5 -2 4 11 6 29 4 31 -4 33 -6 23 -28 -6 -13 -15 -24
-20 -24 -5 0 -6 -4 -3 -10 3 -5 0 -10 -7 -10 -9 0 -9 -3 -2 -8 6 -4 13 -15 17
-24 4 -12 2 -15 -8 -11 -8 3 -12 9 -9 14 3 5 1 9 -4 9 -5 0 -9 -11 -9 -25 0
-14 -9 -33 -19 -41 -11 -9 -12 -12 -4 -8 11 6 10 2 -3 -13 -9 -11 -14 -23 -10
-26 3 -4 1 -7 -5 -7 -6 0 -10 9 -9 19 0 11 5 17 11 14 5 -3 6 -1 2 6 -4 6 -12
9 -17 5 -6 -3 -8 -8 -5 -11 3 -3 -6 -14 -19 -25 -14 -11 -23 -23 -20 -28 3 -5
-5 -16 -17 -25 -21 -15 -21 -16 -3 -13 11 2 23 7 27 13 5 6 12 5 20 -3 7 -8 9
-12 3 -11 -5 2 -20 -2 -31 -9 -12 -6 -25 -8 -29 -4 -5 4 -5 1 -1 -6 4 -7 11
-10 16 -7 5 3 12 1 15 -5 4 -6 1 -9 -7 -8 -7 2 -12 -3 -10 -10 1 -6 -3 -12 -9
-12 -6 0 -9 7 -5 15 6 17 -9 21 -19 5 -4 -6 -11 -7 -17 -4 -6 4 -8 2 -5 -3 4
-6 0 -16 -9 -23 -20 -18 -61 -76 -46 -66 16 10 15 -6 -2 -40 -8 -15 -13 -31
-10 -36 3 -4 0 -8 -6 -8 -7 0 -10 7 -6 15 8 22 -8 18 -38 -10 -15 -14 -24 -25
-20 -25 4 0 16 7 26 17 11 10 18 12 18 4 0 -6 -11 -17 -25 -23 -28 -13 -35
-34 -7 -23 13 5 14 4 5 -6 -10 -10 -16 -9 -28 1 -13 11 -14 10 -9 -4 4 -9 2
-16 -3 -14 -5 2 -24 -14 -42 -34 -18 -21 -29 -38 -25 -38 5 0 2 -5 -6 -11 -12
-8 -9 -9 10 -5 14 3 19 3 12 0 -9 -4 -10 -9 -2 -19 8 -9 8 -15 0 -20 -6 -4 -9
-1 -8 5 4 18 -32 21 -39 3 -3 -9 -1 -24 6 -35 11 -18 11 -19 -16 -1 -26 17
-27 17 -14 0 12 -15 12 -17 -2 -12 -8 4 -18 1 -23 -6 -4 -8 -3 -10 5 -5 7 5
10 2 9 -6 -2 -7 3 -12 10 -10 8 1 11 -2 7 -9 -5 -8 -10 -8 -18 0 -17 17 -24
14 -48 -21 -13 -17 -18 -29 -12 -25 6 4 13 -2 16 -13 4 -16 2 -18 -13 -10 -13
7 -23 3 -41 -17 -13 -14 -19 -23 -13 -20 7 4 15 0 18 -9 4 -11 2 -15 -8 -11
-8 3 -17 -1 -20 -9 -8 -22 -7 -26 3 -19 5 3 12 1 15 -3 3 -5 -9 -9 -27 -8 -18
0 -32 -4 -32 -11 0 -6 -11 -24 -25 -40 -14 -15 -24 -32 -22 -36 1 -4 -5 -10
-14 -14 -13 -5 -13 -7 -2 -14 10 -7 9 -9 -4 -9 -11 0 -15 -5 -12 -15 4 -11 2
-13 -9 -9 -12 4 -14 0 -10 -17 4 -13 8 -18 11 -11 5 16 19 15 19 -2 0 -7 -10
-13 -21 -12 -12 1 -20 -4 -18 -12 2 -10 -2 -10 -19 -1 -12 6 -19 7 -15 1 10
-17 -5 -43 -31 -53 -20 -7 -23 -12 -14 -23 9 -10 7 -17 -6 -27 -16 -13 -17
-12 -4 3 7 10 9 18 5 18 -5 0 -15 -9 -22 -21 -8 -12 -9 -18 -3 -14 7 4 10 -3
9 -19 -1 -15 -6 -26 -11 -26 -5 0 -7 7 -3 15 3 8 1 15 -4 15 -6 0 -10 -7 -10
-15 0 -8 -8 -15 -17 -15 -15 0 -16 -2 -3 -10 12 -8 11 -10 -7 -10 -16 0 -20
-5 -17 -23 2 -12 2 -17 -2 -10 -4 8 -10 7 -24 -4 -10 -9 -17 -20 -14 -25 3 -4
-2 -11 -10 -14 -9 -3 -16 -10 -16 -16 0 -5 5 -6 10 -3 6 3 10 -1 10 -10 0 -9
-4 -14 -10 -10 -9 6 -50 -15 -50 -26 0 -3 7 -6 15 -6 8 0 11 5 8 10 -4 6 -1 7
7 2 9 -5 11 -4 6 3 -5 8 -1 10 10 5 15 -5 15 -7 0 -15 -9 -5 -13 -15 -9 -21 5
-9 3 -9 -8 -1 -18 15 -54 2 -68 -25 -6 -11 -18 -27 -27 -35 -11 -12 -12 -16
-2 -16 7 0 2 -6 -12 -13 -14 -8 -24 -19 -23 -25 2 -6 -6 -16 -17 -22 -23 -12
-18 -32 5 -23 8 3 15 1 15 -5 0 -6 -11 -9 -25 -7 -14 1 -25 -2 -25 -7 0 -5 -4
-7 -9 -3 -5 3 -12 1 -15 -4 -4 -5 -1 -13 5 -17 8 -4 9 -3 5 4 -5 8 -2 10 8 6
9 -3 16 -10 16 -16 0 -5 -4 -7 -9 -3 -5 3 -19 -7 -30 -21 -12 -15 -21 -22 -21
-17 0 6 7 16 15 23 9 7 13 15 11 17 -10 10 -41 -33 -38 -52 2 -14 1 -16 -6 -7
-7 10 -11 10 -21 -2 -9 -11 -9 -16 0 -22 8 -5 9 -3 4 6 -6 9 -4 11 4 5 9 -5 7
-13 -9 -30 -11 -12 -22 -32 -23 -44 -1 -11 -5 -21 -10 -21 -5 0 -7 7 -3 15 8
22 -10 18 -33 -6 -15 -16 -18 -26 -11 -40 9 -15 6 -17 -16 -13 -24 4 -26 3
-21 -23 5 -26 4 -26 -9 -8 -12 16 -14 17 -14 2 0 -9 -5 -17 -11 -17 -7 0 -9
-9 -6 -23 6 -22 6 -22 -10 -2 -15 20 -15 20 -10 -3 3 -12 2 -20 -2 -18 -11 7
-36 -11 -36 -26 -1 -7 -7 -12 -15 -10 -10 3 -9 -2 4 -17 18 -20 18 -20 -3 -16
-14 3 -19 0 -15 -7 5 -7 2 -9 -8 -6 -10 4 -14 0 -14 -16 1 -14 -5 -21 -16 -20
-10 1 -16 -3 -15 -9 1 -6 -3 -11 -10 -12 -6 0 -14 -3 -18 -7 -10 -9 17 -4 35
7 12 7 13 6 3 -7 -7 -8 -10 -17 -8 -20 3 -3 -5 -3 -19 -1 -18 4 -26 0 -31 -16
-3 -11 -15 -23 -26 -26 -19 -6 -19 -8 -5 -24 9 -10 16 -22 16 -27 0 -5 -5 -1
-11 9 -5 9 -15 17 -21 17 -6 0 -5 -7 3 -17 12 -15 12 -16 -3 -10 -10 3 -18 2
-18 -4 0 -6 -4 -8 -9 -4 -5 3 -13 0 -17 -6 -4 -7 -3 -10 2 -7 5 3 16 -1 23
-10 13 -14 12 -15 -8 -9 -14 3 -24 0 -28 -9 -3 -8 -9 -12 -14 -9 -4 3 -6 -3
-4 -15 2 -11 0 -22 -6 -25 -5 -4 -9 -1 -9 5 0 6 -5 8 -11 4 -8 -5 -6 -10 5
-16 9 -5 16 -14 16 -21 0 -8 -3 -8 -8 -2 -4 6 -13 10 -19 9 -7 -1 -18 -2 -25
-3 -6 0 -8 -4 -4 -8 3 -4 -4 -13 -16 -20 -21 -12 -21 -13 -3 -11 11 2 25 12
32 23 11 19 12 19 10 -2 -1 -13 -5 -23 -10 -23 -4 0 -5 -6 -1 -12 5 -9 2 -9
-9 1 -15 12 -17 11 -18 -5 0 -11 -3 -14 -6 -6 -2 6 -9 12 -14 12 -6 0 -8 -4
-4 -9 3 -5 -4 -12 -15 -16 -11 -3 -20 -14 -20 -23 -1 -20 -27 -58 -35 -50 -3
3 1 11 10 18 8 7 15 16 15 21 0 4 -10 -2 -23 -14 -16 -16 -19 -24 -10 -30 16
-10 5 -37 -12 -31 -10 4 -12 -1 -8 -18 5 -23 5 -23 -10 -3 -16 20 -16 19 -11
-5 5 -24 5 -24 -10 -6 -19 23 -21 14 -4 -17 11 -21 10 -21 -7 -7 -10 8 -16 11
-13 5 9 -16 -9 -53 -31 -65 -16 -8 -20 -8 -17 2 1 7 1 10 -1 6 -3 -4 -4 -10
-3 -13 0 -3 -6 -12 -14 -20 -8 -8 -12 -25 -10 -37 4 -21 4 -22 -5 -3 -5 11
-10 16 -10 11 -1 -5 -8 -3 -16 4 -13 11 -14 10 -9 -5 5 -12 4 -16 -4 -11 -6 3
-14 1 -18 -5 -4 -7 -3 -9 3 -6 6 4 13 -2 16 -14 5 -19 4 -20 -19 -4 -25 16
-25 16 -13 -7 l12 -23 -24 20 c-18 16 -21 16 -10 2 8 -9 11 -20 8 -24 -4 -3
-2 -12 4 -19 8 -10 6 -12 -10 -9 -12 2 -24 -3 -29 -12 -8 -13 -10 -13 -15 1
-5 11 -3 15 5 10 7 -4 8 -3 4 5 -11 17 -25 4 -21 -19 2 -11 -1 -19 -8 -17 -7
1 -11 -4 -9 -11 1 -8 -2 -11 -8 -7 -8 5 -7 11 1 21 6 8 9 17 5 21 -3 3 -6 1
-6 -6 0 -7 -4 -10 -9 -7 -5 4 -8 -5 -6 -19 1 -14 -2 -25 -6 -25 -5 0 -9 5 -9
11 0 5 -5 7 -10 4 -6 -4 -8 -11 -5 -16 4 -5 1 -9 -4 -9 -6 0 -11 -4 -11 -10 0
-5 8 -7 18 -4 14 5 14 4 2 -4 -9 -7 -19 -7 -25 -2 -17 14 -58 -37 -51 -64 5
-20 5 -20 -9 -2 -8 11 -18 16 -22 13 -3 -4 -2 -7 3 -7 5 0 -4 -9 -20 -19 -26
-18 -27 -20 -10 -30 18 -11 17 -11 -3 -6 -15 4 -26 0 -36 -15 -7 -11 -18 -17
-23 -12 -4 4 -2 -1 5 -11 8 -9 11 -20 7 -24 -3 -3 -6 -1 -6 4 0 6 -8 10 -18 8
-9 -1 -16 -8 -15 -14 2 -6 0 -11 -5 -11 -4 0 -18 -10 -32 -21 -14 -11 -20 -18
-15 -16 6 3 11 -4 12 -16 0 -12 -1 -16 -4 -9 -7 19 -21 15 -58 -19 -27 -25
-32 -35 -25 -50 9 -16 7 -17 -20 -9 -26 8 -29 6 -21 -8 5 -9 5 -26 1 -36 -6
-17 -7 -17 -13 -3 -3 8 -1 18 6 20 7 3 2 4 -10 4 -12 -1 -20 -4 -17 -8 2 -4 0
-10 -6 -14 -7 -4 -6 -13 1 -27 9 -16 8 -19 -2 -13 -9 6 -11 3 -6 -9 4 -11 3
-15 -4 -11 -6 4 -8 12 -6 19 6 14 -30 19 -38 5 -4 -5 2 -6 12 -2 16 6 17 5 3
-12 -8 -10 -10 -16 -3 -12 6 4 15 2 19 -5 4 -7 4 -10 0 -6 -4 3 -17 -3 -28
-14 -15 -15 -23 -17 -33 -8 -9 8 -15 8 -20 0 -3 -6 -10 -8 -14 -6 -4 3 -8 -1
-8 -9 0 -11 4 -12 14 -4 10 9 13 8 13 -1 0 -6 -9 -14 -20 -17 -11 -3 -17 -9
-15 -14 7 -10 -30 -31 -39 -22 -3 3 -6 0 -6 -8 0 -12 -2 -11 -11 1 -8 11 -9 8
-5 -15 5 -25 4 -27 -5 -12 -8 14 -14 15 -24 7 -8 -6 -11 -19 -8 -27 5 -12 3
-14 -8 -8 -12 8 -12 6 0 -8 12 -15 12 -17 -3 -11 -9 3 -16 2 -16 -4 0 -6 6
-13 13 -15 6 -3 1 -6 -12 -6 l-23 -1 23 -18 c15 -13 19 -21 10 -26 -7 -5 -10
-2 -9 5 2 7 -5 14 -14 16 -12 3 -15 -1 -11 -16 3 -12 -1 -29 -8 -38 -10 -12
-10 -14 -1 -9 6 4 12 2 12 -3 0 -6 -6 -11 -12 -11 -9 0 -9 -3 1 -9 8 -5 11
-16 8 -25 -4 -11 4 -28 23 -48 33 -34 39 -48 13 -27 -10 8 -2 -3 17 -23 19
-20 38 -34 44 -31 5 3 6 1 2 -5 -7 -11 61 -58 71 -48 3 3 15 0 26 -6 24 -12
75 -21 130 -22 20 0 37 -5 37 -9 0 -5 13 -7 30 -5 16 3 30 0 30 -5 0 -5 9 -7
20 -4 10 3 20 1 22 -4 2 -5 21 -10 43 -13 22 -2 47 -6 55 -9 43 -15 50 -15 50
-5 0 7 6 5 13 -4 6 -9 26 -18 42 -20 17 -1 33 -7 36 -11 3 -5 22 -9 41 -10 20
-1 34 -5 31 -10 -2 -4 6 -7 19 -8 13 0 32 -2 43 -5 73 -15 135 -20 135 -10 0
6 5 4 10 -4 5 -8 10 -11 10 -6 0 5 6 4 13 -2 7 -6 49 -13 92 -16 44 -3 80 -6
80 -7 0 -1 25 -3 55 -5 30 -2 69 -6 85 -9 22 -5 26 -4 15 4 -12 8 -11 10 7 8
12 0 20 -5 17 -9 -3 -4 9 -5 26 -3 16 2 32 -1 36 -6 4 -6 11 -6 20 2 11 9 14
9 14 -1 0 -9 4 -9 17 1 13 11 15 11 9 1 -7 -11 69 -13 430 -9 242 3 463 5 492
6 42 0 52 3 46 13 -5 9 -1 8 11 -2 17 -14 18 -13 11 5 -6 16 -5 18 5 7 17 -16
66 -16 72 1 4 9 6 9 6 0 1 -7 10 -13 22 -13 11 0 18 4 15 8 -3 5 1 9 9 9 8 0
15 -3 15 -7 0 -10 52 0 69 14 12 9 13 8 6 -3 -6 -11 -4 -13 9 -8 10 4 20 7 22
7 3 0 2 6 -2 13 -6 9 -5 9 7 0 18 -14 56 -7 84 16 19 15 19 15 5 -3 -9 -12
-10 -17 -3 -12 13 7 33 12 93 22 19 3 39 8 43 11 4 2 21 6 37 8 32 4 106 22
130 32 19 8 29 10 58 11 13 1 21 5 19 10 -3 4 11 7 31 8 20 0 38 6 40 12 2 7
8 10 12 7 14 -9 104 17 118 34 9 10 11 11 6 2 -5 -11 -3 -13 11 -7 10 3 48 14
84 23 36 9 68 19 71 23 3 3 14 7 25 7 36 2 110 26 117 38 4 7 19 10 34 7 20
-4 25 -2 19 8 -5 9 -4 11 3 6 6 -4 22 -1 34 6 13 7 25 13 28 13 17 2 90 40 90
47 0 4 3 7 8 6 15 -4 52 14 47 23 -3 5 0 6 8 3 8 -3 21 1 28 9 8 7 16 13 19
13 18 -1 138 59 133 67 -3 6 -1 7 6 3 7 -4 27 -1 46 8 18 9 47 19 64 22 30 6
31 5 31 -30 0 -22 5 -36 13 -36 8 0 7 -4 -3 -10 -13 -9 -13 -10 0 -10 13 0 13
-1 0 -10 -8 -5 -10 -10 -5 -10 6 0 16 -12 23 -27 9 -20 9 -24 0 -15 -17 17
-24 15 -25 -10 -2 -18 0 -20 7 -8 8 13 10 12 10 -2 0 -10 -5 -18 -11 -18 -5 0
-7 -5 -4 -10 4 -6 12 -8 18 -4 7 3 3 -2 -7 -10 -11 -9 -16 -16 -10 -16 5 0 15
-12 21 -28 12 -27 12 -27 -6 -5 l-18 21 0 -29 c0 -16 4 -29 9 -29 5 0 6 5 2
12 -5 7 -3 8 6 3 11 -7 10 -10 -1 -19 -17 -13 -23 -36 -9 -36 6 0 10 5 10 12
0 6 3 8 7 4 5 -4 1 -13 -7 -19 -20 -15 -20 -55 0 -67 13 -9 13 -10 -1 -10 -13
0 -15 -11 -14 -60 1 -32 -2 -57 -6 -55 -4 3 -10 -1 -12 -7 -4 -10 -6 -9 -6 1
-1 11 -4 11 -18 0 -9 -8 -14 -9 -10 -3 3 6 0 11 -8 11 -10 0 -11 -5 -5 -17 6
-12 5 -17 -5 -17 -8 0 -11 5 -8 11 3 6 3 8 -2 4 -4 -4 -15 -2 -23 5 -13 9 -14
9 -8 0 4 -8 1 -13 -8 -13 -9 0 -16 -6 -16 -12 0 -7 -5 -5 -11 5 -8 14 -14 15
-24 7 -11 -9 -37 -16 -78 -19 -5 -1 -5 -7 -1 -13 5 -8 1 -8 -12 2 -10 8 -21
15 -23 17 -2 1 7 2 20 2 63 1 64 2 49 11 -7 5 -21 5 -29 1 -9 -4 -29 -6 -46
-5 -22 2 -26 1 -15 -6 13 -8 12 -10 -2 -10 -10 0 -18 4 -18 9 0 13 -56 7 -75
-9 -12 -9 -16 -10 -11 -2 5 9 -1 12 -24 10 -20 -1 -29 -7 -26 -15 3 -7 2 -12
-2 -12 -21 4 -32 -2 -26 -13 4 -7 4 -10 -1 -6 -4 4 -14 3 -22 -3 -10 -9 -13
-8 -13 0 0 7 -4 9 -10 6 -5 -3 -10 1 -10 9 0 9 -5 16 -11 16 -5 0 -7 -4 -4
-10 3 -5 1 -10 -4 -10 -6 0 -11 6 -11 13 0 9 -3 8 -9 -2 -5 -7 -13 -11 -18 -8
-12 8 -66 -47 -56 -56 3 -4 1 -7 -6 -7 -9 0 -11 -8 -8 -21 3 -12 0 -28 -8 -35
-8 -8 -12 -23 -10 -34 2 -11 0 -18 -5 -15 -10 6 -5 42 9 59 6 8 6 17 -1 26 -8
12 -9 12 -4 -2 3 -10 -2 -22 -12 -27 -9 -6 -12 -11 -7 -11 6 0 3 -5 -5 -10
-11 -7 -11 -10 -2 -10 8 0 10 -5 6 -12 -10 -15 -13 -88 -4 -83 4 2 7 -10 8
-27 0 -17 4 -34 9 -37 4 -3 9 -13 11 -21 2 -8 10 -18 17 -22 7 -5 11 -17 8
-28 -4 -15 0 -20 13 -20 16 0 17 -2 4 -10 -12 -8 -12 -10 5 -10 17 0 17 -2 5
-10 -11 -7 -11 -10 -2 -10 7 0 10 -4 7 -10 -3 -5 -1 -10 4 -10 6 0 11 5 11 12
0 6 3 8 6 5 4 -4 1 -13 -6 -22 -9 -11 -9 -15 -1 -15 7 0 10 -4 7 -8 -3 -5 4
-21 15 -38 10 -16 19 -37 19 -47 0 -10 5 -15 11 -12 6 4 9 1 8 -6 -5 -30 31
-84 47 -71 5 4 2 -2 -6 -12 -13 -17 -13 -18 -1 -11 11 6 13 4 8 -9 -5 -12 -2
-16 9 -14 9 2 20 -7 25 -19 5 -13 6 -23 3 -23 -2 0 -8 10 -13 22 -4 12 -11 17
-14 11 -3 -5 2 -19 13 -30 10 -12 16 -24 12 -28 -4 -4 1 -13 12 -20 10 -8 15
-18 11 -24 -3 -6 -1 -11 6 -11 7 0 9 -3 6 -7 -4 -3 1 -12 11 -20 9 -8 11 -11
3 -8 -9 5 -8 -1 4 -19 10 -14 21 -26 26 -26 4 0 13 -9 19 -20 8 -16 8 -18 -4
-14 -13 5 -13 2 -3 -19 6 -14 15 -23 19 -21 4 3 15 1 24 -4 15 -8 15 -10 0
-15 -11 -5 -15 -3 -10 5 4 7 3 8 -4 4 -14 -9 2 -46 19 -46 6 0 9 -6 6 -14 -7
-17 16 -39 29 -28 4 4 3 0 -4 -9 -10 -13 -9 -19 3 -29 8 -7 15 -16 15 -21 0
-4 11 -19 25 -33 14 -14 25 -31 25 -38 -1 -7 -8 -1 -16 15 -20 37 -28 34 -9
-4 9 -17 22 -29 28 -26 7 2 21 0 32 -5 18 -8 18 -8 -2 -4 -13 2 -23 1 -23 -4
0 -10 31 -24 49 -21 7 1 10 -2 7 -8 -10 -16 29 -32 43 -18 10 9 11 8 6 -4 -6
-15 285 -17 3837 -17 2114 0 3851 2 3861 4 9 3 15 10 12 15 -3 5 0 6 8 3 8 -3
21 2 30 10 9 9 20 16 25 16 20 0 116 140 95 140 -4 0 -3 4 3 8 16 10 84 148
77 156 -4 3 0 6 7 6 7 0 11 3 7 6 -3 4 1 13 9 21 8 9 13 22 10 30 -3 8 -2 12
2 9 12 -7 44 63 36 76 -4 7 -2 8 4 4 11 -6 14 0 11 20 0 4 3 10 8 13 14 10 45
71 36 71 -4 0 -3 4 3 8 6 4 20 26 31 49 15 31 18 44 9 53 -8 8 -6 9 7 5 15 -6
18 -3 17 20 -1 3 6 13 15 21 18 18 20 38 3 28 -7 -4 -8 -3 -4 5 4 6 11 9 16 6
13 -8 19 22 7 34 -9 10 -9 12 3 9 9 -2 14 4 14 14 -1 10 2 16 5 13 11 -6 42
64 35 77 -4 7 -2 8 4 4 7 -4 12 -1 12 9 0 8 4 23 9 33 29 57 46 132 30 132 -5
0 -5 7 -2 17 4 11 3 14 -5 9 -7 -4 -12 -2 -12 3 0 6 5 11 12 11 6 0 3 9 -7 20
-10 11 -15 20 -12 20 4 0 -1 9 -10 20 -10 11 -23 20 -31 20 -7 0 -10 5 -7 10
3 6 0 10 -8 10 -8 0 -17 9 -20 20 -3 13 -10 18 -21 14 -9 -3 -22 -1 -30 5 -11
9 -18 8 -30 -4 -15 -15 -16 -15 -16 4 0 13 -7 21 -17 22 -10 1 -34 3 -53 4
-38 3 -64 -11 -53 -29 3 -6 2 -7 -2 -3 -14 12 -15 38 -2 30 7 -3 9 -2 4 2 -11
13 -76 14 -84 2 -4 -6 -1 -7 7 -2 9 6 11 4 5 -5 -6 -10 -12 -7 -25 10 -13 17
-19 20 -25 10 -5 -9 -4 -11 3 -6 7 4 12 2 12 -3 0 -12 -13 -14 -24 -4 -11 11
-46 14 -46 3 0 -6 -5 -10 -11 -10 -5 0 -7 5 -3 12 5 7 2 9 -8 5 -9 -3 -26 2
-39 10 -12 9 -19 11 -15 5 8 -13 -14 -11 -46 2 -9 4 -21 5 -27 2 -5 -4 -12 -2
-16 3 -3 5 -14 8 -25 6 -25 -5 -30 14 -33 115 -2 41 -7 81 -11 89 -7 10 -5 12
3 6 10 -5 12 13 9 81 -2 67 -6 88 -16 86 -8 -1 -11 2 -7 8 3 6 11 8 16 5 5 -4
9 -1 9 4 0 6 -6 11 -12 11 -9 0 -8 4 2 10 10 6 11 10 3 10 -7 0 -13 5 -13 11
0 5 5 7 10 4 6 -3 10 4 10 17 0 18 -2 20 -10 8 -7 -10 -10 -11 -10 -2 0 7 7
15 15 18 21 9 19 25 -2 17 -16 -5 -15 -4 1 9 10 8 16 20 12 26 -8 13 28 3 97
-27 26 -11 47 -18 47 -15 0 3 7 -2 16 -10 8 -9 20 -14 25 -11 5 4 9 1 9 -5 0
-6 4 -9 9 -5 5 3 17 -2 25 -11 9 -9 23 -13 32 -10 8 3 12 2 9 -3 -5 -9 20 -22
39 -20 5 0 12 -3 15 -8 3 -4 16 -14 29 -21 18 -10 22 -10 23 0 0 7 4 3 9 -9 8
-20 20 -26 46 -22 4 0 10 -4 13 -9 3 -6 15 -12 26 -14 11 -1 26 -9 33 -16 8
-7 17 -10 22 -7 5 3 10 0 12 -6 2 -6 18 -12 35 -12 17 -1 30 -4 28 -8 -6 -9
93 -31 106 -23 8 5 9 3 4 -6 -6 -10 -4 -12 8 -7 10 3 17 3 17 -1 0 -4 28 -14
63 -22 34 -8 64 -15 67 -16 3 0 13 -4 22 -8 9 -4 22 -4 29 0 7 4 9 3 6 -3 -8
-12 98 -37 114 -27 7 4 9 3 6 -3 -5 -8 56 -29 105 -37 7 -1 18 -4 23 -8 9 -5
80 -19 102 -20 5 0 18 -4 31 -9 15 -6 22 -5 22 4 0 8 4 7 10 -3 5 -8 10 -10
10 -5 0 6 4 4 8 -2 4 -7 24 -15 43 -17 18 -3 34 -6 34 -7 0 -1 14 -2 30 -3 17
-1 35 -5 40 -8 6 -3 22 -5 37 -4 14 1 24 -2 22 -6 -3 -4 7 -8 23 -9 15 0 35
-2 43 -3 72 -14 130 -15 130 -4 0 10 3 9 9 -1 5 -7 14 -10 20 -7 6 4 11 1 11
-6 0 -10 2 -10 9 1 6 10 10 10 16 1 5 -8 11 -6 22 7 12 15 14 15 10 2 -4 -12
1 -16 19 -16 21 0 23 2 12 15 -10 12 -6 11 15 -2 15 -10 27 -15 27 -12 0 4 9
2 20 -4 15 -8 20 -8 20 1 0 8 4 9 13 0 10 -8 17 -7 25 1 9 9 12 9 12 0 0 -10
101 -12 455 -11 250 1 452 5 449 10 -2 4 14 6 36 3 22 -3 40 -1 40 3 0 4 27 7
60 6 33 -1 62 2 64 6 3 4 25 6 50 4 24 -2 47 0 50 5 3 6 15 8 26 5 11 -3 28 1
37 8 15 12 16 12 8 -1 -7 -12 -6 -13 7 -3 8 7 18 10 21 6 4 -3 7 0 7 8 0 12 2
11 10 -1 6 -9 13 -11 18 -5 4 6 23 11 42 11 33 1 66 6 133 20 15 3 27 9 27 12
0 4 10 8 23 8 33 2 81 14 87 22 3 4 11 7 18 8 39 3 43 5 36 17 -5 9 -4 9 5 1
10 -9 28 -8 74 3 34 8 67 16 73 17 7 1 20 8 30 16 13 11 16 12 10 1 -7 -10 -2
-12 20 -7 16 3 63 11 104 16 41 6 76 15 78 20 2 5 10 6 18 3 8 -3 14 0 14 6 0
6 3 10 8 10 21 -4 36 5 77 47 41 43 47 52 44 70 0 4 5 10 12 14 6 4 12 22 13
39 0 17 4 31 8 31 5 0 5 17 2 38 -3 20 -6 43 -6 50 -1 6 -8 12 -17 13 -10 0
-12 2 -4 6 10 3 10 8 -1 19 -17 16 -30 19 -21 4 3 -6 -1 -7 -10 -4 -14 6 -14
8 1 19 14 9 14 14 4 20 -9 6 -11 4 -6 -6 4 -8 0 -5 -8 5 -9 11 -16 23 -16 28
0 4 -4 8 -9 8 -5 0 -7 -10 -5 -22 4 -21 4 -21 -4 -3 -5 11 -7 26 -5 33 7 16
-14 16 -21 0 -3 -7 -3 -2 0 11 4 16 3 21 -5 17 -6 -4 -11 0 -11 8 0 9 -9 16
-20 16 -11 0 -20 5 -20 11 0 5 6 7 13 3 6 -5 -1 6 -18 24 -21 22 -33 28 -41
21 -8 -7 -15 -6 -20 2 -4 8 -3 9 4 5 7 -4 12 -4 12 1 0 16 -125 123 -139 118
-9 -3 -11 0 -8 10 4 8 1 17 -5 21 -7 4 -8 3 -4 -4 4 -7 1 -12 -9 -12 -11 0
-15 5 -12 14 3 8 -10 29 -31 48 -37 34 -43 38 -62 38 -5 0 -10 5 -10 11 0 5 5
7 12 3 6 -4 8 -3 4 4 -3 6 -19 8 -34 6 -26 -5 -26 -4 -7 10 19 14 19 15 -7 27
-15 6 -25 17 -22 23 3 6 -2 2 -11 -9 l-17 -20 6 20 c6 20 -5 47 -19 47 -4 0
-12 -6 -17 -14 -6 -9 -7 -6 -3 9 3 12 1 25 -6 29 -7 4 -9 3 -5 -4 3 -6 3 -13
-2 -16 -4 -2 -9 5 -9 16 -2 24 -31 58 -50 58 -7 0 -13 6 -13 14 0 8 -9 18 -20
21 -11 4 -18 11 -15 16 4 5 -3 9 -14 9 -12 0 -21 5 -21 11 0 5 6 7 13 3 6 -4
5 1 -4 10 -8 9 -26 18 -38 21 -13 2 -26 7 -30 11 -3 4 2 4 12 1 29 -11 19 12
-15 33 -18 11 -29 20 -25 20 5 0 2 7 -7 15 -21 22 -28 18 -16 -8 10 -20 10
-21 -4 -4 -8 11 -12 26 -9 34 4 9 -2 16 -16 20 -11 3 -18 9 -15 14 3 6 -6 8
-20 5 -15 -3 -24 -1 -21 5 4 5 11 7 16 4 5 -4 9 -2 9 4 0 5 -9 13 -21 16 -11
4 -18 9 -15 12 2 3 -10 20 -29 38 -18 19 -32 35 -31 37 0 2 -5 -4 -13 -12 -11
-13 -12 -12 -7 5 5 20 -5 48 -18 46 -19 -3 -27 0 -22 7 3 5 -2 19 -11 31 -10
16 -22 21 -37 17 -20 -5 -20 -5 -2 9 19 14 19 15 1 15 -10 0 -15 3 -12 7 4 3
-4 14 -19 23 -14 10 -25 19 -23 21 5 8 -26 49 -37 49 -6 0 -18 8 -25 18 -13
16 -13 16 6 2 11 -8 8 -1 -7 15 -15 17 -37 41 -48 55 -12 15 -18 18 -14 7 3
-9 2 -17 -4 -17 -6 0 -9 11 -8 25 2 16 -5 30 -20 42 -13 10 -24 23 -24 30 0 7
-9 18 -20 25 -11 7 -20 18 -20 24 0 17 -34 44 -56 45 -18 0 -18 1 1 9 17 7 12
11 -12 9 -5 0 -11 10 -14 23 -3 13 -12 23 -20 22 -8 -1 -16 8 -17 20 0 12 -10
28 -22 38 -11 9 -20 20 -20 25 0 5 -10 19 -22 30 -13 12 -31 33 -41 47 -10 15
-23 23 -29 20 -7 -4 -8 -2 -4 5 4 6 0 14 -8 17 -9 3 -16 12 -16 19 0 8 -9 17
-20 20 -11 3 -20 11 -20 16 0 6 5 7 12 3 7 -4 8 -3 4 4 -4 6 -14 8 -23 5 -12
-5 -15 -2 -10 10 7 18 -24 42 -38 29 -5 -4 -5 -1 -1 6 4 7 13 9 19 6 7 -4 3 2
-8 13 -11 11 -23 19 -26 17 -4 -2 -10 3 -13 12 -4 10 -2 13 7 8 6 -5 -1 8 -18
28 -16 20 -36 35 -44 32 -8 -2 -11 1 -8 8 5 15 -18 40 -27 30 -4 -3 -5 0 -1 8
3 8 -6 27 -20 42 -14 15 -25 31 -25 36 0 6 -13 20 -30 33 -16 13 -30 29 -30
35 0 6 -7 18 -16 25 -14 11 -18 10 -30 -6 -8 -10 -14 -14 -14 -8 0 6 7 16 15
23 10 8 11 15 4 23 -6 7 -25 33 -43 59 -24 34 -36 44 -44 36 -8 -8 -9 -6 -6 9
8 29 -21 50 -43 32 -16 -12 -16 -11 0 8 14 16 15 23 6 29 -8 5 -10 3 -4 -6 5
-8 4 -11 -3 -6 -6 4 -9 13 -5 21 3 8 1 15 -4 15 -5 0 -19 18 -32 40 -12 22
-26 40 -32 40 -5 0 -9 5 -9 11 0 19 -52 79 -69 79 -13 0 -13 2 -2 9 11 7 10
12 -8 22 -11 8 -21 19 -21 26 0 7 -4 13 -10 13 -5 0 -10 7 -10 15 0 8 -4 15
-10 15 -5 0 -10 4 -10 10 0 9 -19 35 -47 65 -7 8 -13 18 -13 22 0 5 -19 29
-42 53 -24 25 -34 38 -23 30 20 -14 20 -14 1 7 -10 13 -23 20 -28 17 -5 -3 -8
0 -6 8 3 13 -5 25 -44 69 -10 10 -15 19 -12 19 4 0 1 7 -6 15 -7 8 -17 12 -23
8 -6 -3 -7 -1 -3 5 8 14 -17 55 -27 45 -4 -3 -7 1 -7 10 0 9 -8 22 -17 29 -10
7 -25 27 -34 43 -10 20 -22 29 -35 27 -14 -2 -16 -1 -6 6 12 8 12 13 0 31 -7
12 -18 19 -25 17 -7 -3 -15 0 -19 6 -4 7 -3 8 4 4 7 -4 12 -2 12 3 0 6 -4 11
-10 11 -5 0 -10 6 -10 13 -1 19 -86 127 -95 119 -5 -4 -5 1 -1 12 4 13 2 17
-7 13 -8 -3 -14 1 -14 8 0 7 -14 36 -33 64 -18 29 -30 54 -28 57 3 2 58 -5
123 -17 65 -11 129 -19 141 -16 13 2 21 0 18 -4 -3 -5 4 -9 15 -9 12 0 21 5
21 12 0 7 5 6 13 -4 7 -9 27 -15 48 -15 19 0 40 -2 45 -6 5 -3 68 -8 139 -12
71 -4 134 -9 139 -12 5 -4 6 -2 3 4 -6 10 59 11 68 1 3 -3 25 -2 49 2 24 4 55
5 67 3 22 -3 176 11 224 21 11 3 35 5 53 5 18 1 31 4 28 9 -2 4 13 6 35 5 27
-1 37 2 33 9 -4 7 -2 8 5 4 16 -10 153 13 146 25 -4 5 0 6 8 3 8 -3 35 0 58 7
24 7 53 13 64 15 11 1 61 15 110 29 50 15 98 30 107 32 10 3 15 10 11 16 -3 5
-1 7 5 3 12 -7 82 23 82 36 0 4 6 8 14 8 14 0 85 68 88 85 0 6 8 15 16 21 9 7
12 16 7 24 -5 8 -4 11 2 7 6 -4 14 5 17 21 4 15 9 35 13 46 3 10 1 16 -4 13
-5 -4 -10 0 -10 8 0 8 5 11 10 8 6 -3 7 -2 4 4 -3 5 -8 23 -11 39 -8 40 -27
84 -37 84 -5 0 -9 5 -9 10 0 18 -38 53 -49 46 -6 -4 -9 -1 -5 7 6 18 -21 41
-37 31 -8 -5 -9 -3 -4 6 6 10 4 12 -8 7 -10 -4 -16 -2 -14 6 1 7 -4 11 -10 9
-7 -1 -13 5 -13 14 0 14 -2 15 -17 3 -12 -10 -15 -10 -9 -1 4 7 0 19 -8 28
-12 12 -16 12 -16 2 0 -7 -8 -1 -18 15 -9 15 -21 27 -26 27 -4 0 -3 -6 3 -14
8 -10 9 -16 1 -21 -6 -4 -9 -1 -8 7 2 7 -2 12 -9 11 -7 -2 -10 3 -7 11 3 7 -2
19 -11 26 -14 12 -18 11 -26 -1 -7 -11 -9 -8 -9 10 0 19 -4 22 -21 18 -16 -4
-19 -2 -15 10 6 14 4 14 -11 2 -9 -8 -14 -9 -10 -2 9 15 -33 55 -50 49 -7 -3
-10 1 -7 9 4 10 -2 13 -20 11 -20 -3 -24 0 -16 9 8 9 8 15 0 20 -5 3 -10 3
-10 -2 0 -4 -5 0 -11 10 -6 9 -14 15 -20 12 -5 -4 -9 -1 -9 4 0 6 -5 11 -11
11 -5 0 -7 -5 -3 -12 4 -7 3 -8 -4 -4 -6 4 -9 13 -5 22 3 8 2 14 -3 13 -20 -3
-35 2 -30 10 3 5 -6 12 -19 15 -14 4 -23 11 -20 16 3 5 0 12 -6 16 -8 4 -9 3
-5 -4 4 -7 3 -12 -3 -12 -5 0 -13 9 -16 20 -4 13 -15 20 -31 20 -15 0 -24 6
-24 16 0 9 -9 18 -20 21 -11 3 -18 9 -15 13 2 4 -7 13 -20 20 -14 7 -25 17
-25 22 0 5 -10 6 -22 3 -18 -5 -20 -4 -8 4 13 9 12 12 -7 17 -13 4 -23 10 -23
15 0 5 -9 9 -19 9 -11 0 -23 9 -26 20 -3 11 -10 20 -14 20 -5 0 -21 13 -38 28
-16 16 -37 28 -46 26 -10 -1 -14 2 -10 9 4 7 0 8 -12 3 -15 -5 -16 -4 -5 9 11
13 10 14 -6 9 -10 -4 -16 -3 -12 1 12 12 -28 36 -49 29 -17 -5 -17 -5 0 6 18
11 17 13 -5 28 -12 9 -24 16 -25 14 -2 -1 -19 15 -38 36 -24 25 -33 31 -29 17
l6 -20 -12 20 c-24 40 -134 133 -153 129 -15 -3 -17 -1 -7 11 11 14 7 19 -12
16 -5 0 -8 5 -8 13 0 8 -7 16 -15 20 -16 6 -16 -14 0 -27 6 -5 4 -7 -4 -5 -13
4 -20 21 -23 55 -1 10 -5 10 -15 1 -11 -9 -12 -7 -6 7 5 14 3 17 -8 13 -8 -3
-23 -1 -34 4 -18 8 -18 8 3 4 28 -5 28 8 0 28 -17 12 -24 13 -31 3 -5 -7 -6
-3 -2 11 4 15 2 22 -8 22 -8 0 -17 9 -20 20 -3 12 -14 20 -27 20 -11 0 -19 4
-16 9 3 4 -1 17 -9 27 -13 18 -14 18 -8 -3 3 -13 1 -23 -6 -23 -5 0 -8 6 -5
14 6 15 -52 83 -67 78 -5 -1 -8 2 -7 6 4 12 -64 82 -74 76 -5 -3 -7 -1 -6 4 4
13 -232 248 -244 244 -5 -1 -7 1 -4 6 6 10 -29 42 -45 42 -5 0 -8 4 -5 9 7 11
-38 53 -48 44 -4 -4 -4 0 -1 8 4 10 -3 20 -20 29 -14 7 -25 17 -25 21 0 12
-48 58 -54 51 -3 -3 -6 0 -6 8 0 20 -78 93 -91 84 -8 -4 -9 -3 -5 4 4 7 3 18
-1 26 -8 14 -12 16 -33 16 -5 0 -10 5 -10 11 0 5 5 7 12 3 7 -4 8 -3 4 5 -4 6
-11 9 -15 7 -4 -3 -18 5 -32 17 -13 12 -20 19 -15 15 21 -17 28 -7 8 11 -12
10 -22 24 -22 30 0 7 -4 9 -10 6 -6 -3 -10 -1 -10 5 0 6 -5 8 -10 5 -6 -4 -9
-3 -8 2 4 15 -23 54 -34 47 -6 -4 -8 -3 -5 3 8 13 -47 66 -58 56 -4 -5 -5 0
-1 11 5 14 2 17 -9 12 -9 -3 -13 -2 -10 3 6 11 -67 91 -83 91 -7 0 -12 5 -12
11 0 5 5 7 12 3 7 -4 8 -3 4 5 -4 6 -17 9 -29 6 -12 -2 -16 -2 -9 1 22 10 13
25 -13 20 -13 -3 -27 -1 -30 4 -3 5 4 7 15 5 27 -5 26 10 -2 29 -12 9 -19 16
-14 16 5 0 3 7 -4 15 -9 11 -16 12 -25 5 -9 -8 -12 -6 -12 7 0 35 -3 44 -13
38 -5 -3 -10 -1 -10 5 0 6 -5 8 -12 4 -7 -4 -8 -3 -4 4 9 14 -24 53 -38 45 -6
-3 -8 -3 -4 2 10 10 -11 37 -23 30 -4 -3 -6 -13 -3 -23 5 -14 4 -14 -4 -2 -8
10 -7 18 1 28 9 11 3 22 -31 53 -23 22 -42 44 -42 48 0 11 -30 25 -50 23 -10
-1 -11 0 -2 4 23 11 12 24 -18 20 -16 -2 -30 1 -30 6 0 6 9 8 20 5 11 -3 20
-1 20 4 0 5 -5 9 -11 9 -5 0 -8 4 -4 9 3 5 0 13 -6 17 -8 4 -9 3 -5 -4 4 -7 3
-12 -2 -12 -5 0 -15 14 -22 30 -7 17 -19 30 -27 30 -8 0 -11 5 -8 10 3 6 1 10
-4 10 -6 0 -11 5 -11 10 0 6 -24 35 -54 65 -29 30 -56 61 -59 70 -4 8 -14 15
-22 15 -9 0 -14 4 -11 9 7 11 -54 62 -66 55 -4 -3 -8 0 -8 5 0 6 6 11 13 12 6
0 2 5 -10 11 -13 6 -23 15 -23 19 0 15 -43 59 -52 53 -5 -3 -7 -1 -6 4 2 6
-15 31 -36 57 l-39 47 64 -6 c35 -4 96 -9 134 -11 39 -3 87 -8 108 -11 30 -4
37 -2 32 8 -6 10 -5 11 6 1 7 -7 21 -13 30 -13 10 0 20 6 22 13 4 10 6 10 6 0
1 -7 10 -13 22 -13 13 0 18 4 13 13 -6 9 -4 9 7 1 8 -6 54 -12 102 -13 49 -1
91 -2 95 -2 25 -4 42 3 37 14 -4 6 0 4 8 -5 14 -18 33 -25 23 -10 -2 4 4 8 14
8 10 0 16 -4 14 -8 -3 -4 0 -8 5 -8 6 0 11 6 11 13 0 8 4 7 10 -3 9 -13 10
-13 10 0 0 13 1 13 10 0 5 -8 10 -10 10 -5 0 6 43 10 110 9 61 0 110 2 110 5
0 3 28 7 63 8 34 1 80 7 102 12 22 5 67 15 100 21 33 7 66 17 74 24 12 9 13 8
6 -3 -5 -9 -4 -12 2 -8 6 4 28 9 49 13 22 3 42 11 46 18 6 8 8 7 8 -2 0 -7 5
-10 10 -7 6 4 32 8 58 11 42 4 91 15 132 31 8 3 24 8 35 10 28 5 100 58 98 71
-2 6 4 9 12 6 9 -4 15 0 15 9 0 8 4 17 8 19 4 2 15 19 24 38 13 27 14 38 5 49
-9 12 -9 13 1 7 6 -4 13 -4 13 1 8 54 7 67 -1 53 -6 -9 -10 -10 -10 -3 0 6 5
15 11 18 6 5 4 12 -8 22 -10 8 -12 12 -5 8 15 -8 16 12 1 54 -6 17 -18 31 -26
31 -8 0 -11 5 -8 10 3 6 1 10 -5 10 -6 0 -8 5 -4 12 4 7 3 8 -5 4 -6 -4 -14 0
-17 8 -3 9 -12 16 -19 16 -7 0 -16 7 -19 16 -3 8 -10 13 -15 10 -4 -3 -16 3
-26 14 -19 21 -51 28 -39 8 4 -7 3 -8 -4 -4 -6 4 -8 14 -5 24 6 15 5 15 -10 3
-16 -12 -17 -12 -10 5 6 17 5 18 -11 5 -12 -10 -16 -11 -14 -2 2 7 -8 20 -22
29 -13 9 -21 11 -16 5 4 -7 2 -13 -3 -13 -6 0 -11 7 -11 15 0 17 -29 34 -47
28 -7 -3 -13 3 -13 12 0 9 -4 13 -10 10 -5 -3 -10 -1 -10 6 0 7 -3 9 -6 6 -4
-4 -1 -13 6 -22 11 -13 10 -14 -4 -9 -9 3 -17 10 -17 15 -1 5 -2 13 -3 18 0 5
-5 13 -10 18 -5 5 -6 3 -2 -4 4 -7 3 -13 -2 -13 -5 0 -14 10 -21 23 -6 12 -9
14 -7 5 3 -11 0 -15 -9 -12 -8 3 -11 12 -8 20 3 9 -2 14 -17 14 -11 0 -18 5
-15 10 3 6 0 10 -8 10 -8 0 -22 9 -31 19 -10 11 -25 17 -34 14 -10 -4 -13 -2
-8 5 4 7 2 12 -5 12 -6 0 -18 8 -26 18 -9 11 -12 12 -8 2 4 -8 -2 -4 -12 8
l-19 24 -17 -24 -18 -23 11 23 c10 20 8 26 -11 43 -13 11 -29 17 -36 15 -7 -3
-15 -1 -18 5 -4 5 -11 6 -17 3 -7 -4 -8 -2 -4 4 4 6 -6 18 -24 27 -16 8 -30
20 -30 25 0 13 -83 90 -97 90 -7 0 -13 5 -13 10 0 6 -9 10 -19 10 -11 0 -23 5
-27 12 -5 7 -3 8 7 3 12 -8 12 -6 0 8 -11 14 -16 15 -29 5 -11 -9 -13 -9 -9
-1 8 12 -2 23 -53 63 -18 14 -42 35 -53 48 -11 12 -28 22 -37 22 -9 0 -25 10
-36 23 l-19 22 23 -19 c12 -11 22 -17 22 -13 0 3 -19 20 -42 39 -23 18 -39 27
-35 21 5 -7 4 -13 -2 -13 -10 0 -15 14 -12 33 1 5 -3 6 -9 2 -5 -3 -10 -1 -10
5 0 6 -4 9 -9 5 -5 -3 -12 4 -16 15 -3 11 -11 20 -16 20 -6 0 -8 -4 -4 -9 3
-5 1 -12 -4 -16 -6 -3 -8 5 -5 20 3 19 1 23 -11 19 -9 -4 -15 -2 -13 4 4 13
-42 53 -53 46 -5 -3 -6 2 -3 11 5 11 2 14 -12 8 -10 -4 -15 -2 -11 4 3 5 -4
19 -16 29 -44 37 -61 49 -54 38 3 -6 0 -11 -7 -11 -8 0 -12 6 -9 13 3 7 1 18
-3 25 -5 9 -11 7 -21 -7 -13 -18 -14 -17 -9 8 3 16 -1 32 -10 39 -8 6 -14 8
-14 3 0 -5 -7 2 -16 14 -8 12 -22 22 -30 22 -8 0 -14 6 -14 13 0 11 -56 67
-70 71 -3 0 -4 5 -2 10 2 5 -5 3 -14 -5 -16 -12 -17 -12 -12 2 8 20 -106 134
-123 123 -8 -4 -9 -3 -5 4 9 16 -115 142 -140 142 -16 0 -17 2 -4 10 13 8 12
10 -3 10 -10 0 -16 4 -13 9 7 11 -38 53 -47 44 -4 -3 -7 2 -7 13 0 16 -2 17
-10 4 -8 -13 -10 -12 -10 3 0 20 -22 47 -38 47 -5 0 -16 8 -23 18 -13 16 -12
16 6 3 11 -8 7 -2 -9 14 -20 20 -30 24 -36 16 -5 -9 -9 -8 -14 5 -3 9 -4 19
-1 22 3 3 5 -1 5 -8 0 -7 3 -11 6 -7 8 7 -187 203 -198 199 -5 -1 -7 1 -4 6 3
5 -6 19 -19 30 -28 24 -40 28 -29 10 4 -7 3 -8 -4 -4 -6 4 -9 13 -5 21 3 8 -1
15 -8 15 -7 0 -10 3 -6 6 10 11 -20 34 -45 35 -22 0 -22 1 -3 9 14 6 16 9 5
10 -8 2 -19 2 -23 1 -5 -1 -7 4 -5 10 5 15 -56 84 -68 77 -5 -3 -18 -1 -29 3
-18 9 -18 9 3 5 12 -2 22 -2 22 1 0 9 -28 32 -33 27 -3 -3 -8 4 -12 16 -4 13
-12 19 -21 16 -9 -3 -12 -1 -9 4 3 5 1 18 -5 27 -11 17 -11 17 -6 0 5 -15 2
-16 -14 -7 -11 6 -20 13 -20 16 0 3 5 2 10 -1 6 -3 10 -1 10 4 0 6 -5 11 -11
11 -5 0 -7 4 -4 10 4 6 -1 7 -11 3 -12 -4 -15 -3 -10 5 4 7 2 12 -3 12 -6 0
-11 -5 -11 -12 0 -6 -3 -8 -6 -5 -4 4 -1 14 7 24 12 14 12 16 -1 11 -9 -3 -27
4 -40 15 -16 13 -19 18 -7 14 9 -4 17 -2 17 3 0 6 -4 10 -10 10 -5 0 -9 3 -8
8 4 11 -35 52 -44 46 -5 -3 -8 -2 -7 3 3 17 -1 36 -7 30 -8 -8 -33 16 -27 26
2 4 -3 10 -11 13 -9 3 -13 10 -10 15 3 5 0 8 -7 7 -7 -2 -13 3 -14 10 0 16
-26 33 -39 25 -5 -4 -7 1 -3 11 5 13 3 17 -7 13 -11 -4 -13 -1 -9 10 4 11 2
14 -5 9 -7 -4 -13 -2 -13 3 -1 6 -2 17 -3 24 -1 6 -9 11 -19 9 -9 -2 -16 1
-15 5 5 18 -14 53 -29 53 -9 0 -14 3 -11 6 9 8 -55 74 -72 74 -13 0 -13 1 0
10 13 8 12 10 -2 10 -10 0 -17 3 -16 8 4 15 -26 50 -39 45 -8 -3 -11 0 -8 9 7
17 -20 43 -34 33 -6 -3 -8 0 -5 8 7 18 -24 50 -42 43 -8 -3 -13 0 -11 7 1 7
-4 11 -11 9 -8 -1 -11 2 -7 8 5 8 11 7 21 -1 8 -6 14 -7 14 -2 0 5 -11 16 -25
23 -14 7 -23 15 -20 18 10 10 -17 43 -32 38 -11 -5 -13 -2 -9 9 3 10 -1 18
-14 23 -10 4 -19 9 -19 12 0 16 -14 39 -22 34 -9 -5 -13 10 -9 31 1 6 -4 4
-11 -2 -16 -16 -29 -17 -29 -2 0 5 5 7 10 4 17 -10 11 7 -7 22 -10 8 -12 11
-4 8 9 -5 7 1 -4 19 -10 15 -24 25 -31 22 -9 -3 -11 0 -7 11 5 12 3 14 -7 8
-8 -5 -11 -4 -7 2 4 6 -2 22 -14 34 -11 13 -18 19 -15 13 3 -7 -2 -18 -11 -25
-15 -12 -16 -12 -8 1 18 28 14 47 -10 60 -13 7 -23 18 -22 24 1 6 -4 10 -11 8
-8 -1 -11 2 -7 8 8 13 -14 42 -26 34 -5 -3 -6 -10 -3 -16 4 -7 2 -8 -5 -4 -9
6 -9 11 0 22 9 11 8 19 -6 34 -10 11 -24 20 -32 20 -7 0 -13 5 -13 11 0 5 6 7
13 4 6 -3 2 2 -10 11 -13 9 -23 23 -23 31 0 8 -4 11 -10 8 -5 -3 -10 -1 -10 5
0 6 -5 8 -12 4 -9 -5 -9 -2 1 9 12 15 9 21 -12 18 -4 0 -6 5 -5 11 2 7 -2 12
-9 11 -7 -2 -10 3 -8 10 3 6 -8 26 -25 44 -16 18 -30 37 -30 43 0 6 -4 8 -10
5 -5 -3 -10 1 -10 10 0 9 -4 13 -10 10 -5 -3 -10 1 -10 9 0 9 -5 16 -12 16 -6
0 -8 3 -5 6 9 10 -33 65 -44 59 -5 -4 -6 1 -3 9 3 9 1 16 -4 16 -6 0 -14 9
-17 20 -4 11 -11 18 -16 15 -5 -4 -9 1 -9 9 0 9 -5 16 -12 16 -6 0 -9 3 -5 6
3 4 1 12 -6 19 -7 7 -19 22 -27 34 -10 15 -16 17 -23 8 -5 -8 -6 -5 -3 8 4 14
-1 25 -14 35 -11 8 -20 20 -20 28 0 7 -5 10 -12 6 -7 -5 -9 -2 -5 9 3 9 -1 21
-11 29 -13 11 -14 11 -7 -1 5 -9 4 -12 -3 -7 -6 4 -9 13 -6 20 3 7 -9 27 -25
44 -17 17 -31 35 -31 41 0 6 -5 11 -12 11 -6 0 -8 3 -5 7 10 9 -14 34 -26 26
-5 -3 -7 -1 -3 5 8 13 -35 81 -52 82 -7 0 -10 5 -7 11 4 6 0 9 -11 7 -12 -2
-18 2 -16 11 2 9 -3 11 -15 7 -14 -6 -15 -4 -6 5 13 13 36 3 27 -13 -4 -7 -2
-8 4 -4 16 9 16 9 -10 39 -41 45 -58 71 -58 85 0 7 -5 10 -10 7 -6 -4 -8 -10
-6 -14 3 -4 -1 -8 -9 -8 -10 0 -12 4 -5 12 6 7 5 16 -3 25 -10 10 -9 11 1 5
11 -6 12 -3 2 14 -6 12 -15 19 -20 16 -5 -3 -12 0 -16 6 -4 8 -3 9 4 5 7 -4
12 -2 12 3 0 6 -7 11 -15 11 -8 0 -15 5 -15 11 0 5 6 7 13 3 8 -5 7 -2 -2 10
-11 13 -16 14 -24 4 -6 -9 -7 -8 -3 5 8 25 -4 44 -15 26 -6 -10 -8 -6 -7 11 2
16 -2 24 -10 22 -8 -1 -11 2 -8 7 7 10 -66 130 -87 143 -7 4 -8 8 -4 8 12 0
-20 30 -32 30 -5 0 -13 4 -16 10 -3 6 1 7 9 4 9 -3 16 -2 16 4 0 5 -7 12 -15
16 -8 3 -14 9 -13 13 4 11 -35 73 -45 73 -4 0 -5 5 -2 10 3 6 2 10 -3 10 -5 0
-15 14 -22 30 -7 17 -17 30 -22 30 -5 0 -6 6 -2 13 5 7 0 6 -11 -3 -17 -14
-18 -14 -7 7 10 19 8 24 -13 41 -26 20 -35 39 -12 26 8 -5 8 -3 -2 9 -7 9 -17
15 -21 12 -5 -3 -6 4 -3 15 3 12 0 20 -6 20 -7 0 -9 -5 -5 -12 4 -7 3 -8 -5
-4 -6 4 -8 12 -5 18 10 16 -18 59 -34 53 -12 -4 -13 -3 -2 10 10 12 10 15 -3
15 -9 0 -19 5 -23 12 -5 7 -3 8 6 3 10 -6 12 -4 7 9 -4 10 -7 19 -7 22 0 2 -6
1 -14 -2 -8 -3 -17 0 -22 7 -4 7 -3 10 4 5 6 -3 13 -2 17 4 3 5 1 10 -4 10 -6
0 -11 9 -11 21 0 11 -4 18 -9 14 -5 -3 -11 5 -13 17 -2 13 -9 22 -16 20 -8 -1
-11 2 -7 7 6 11 -60 140 -81 157 -16 13 -19 28 -3 19 6 -4 5 2 -3 14 -7 12
-16 21 -20 21 -5 0 -8 9 -8 20 0 11 -9 29 -19 39 -11 11 -17 21 -15 24 2 2 -3
21 -12 43 -40 99 -59 134 -71 134 -7 0 -13 5 -13 11 0 5 5 7 11 3 7 -4 2 7
-11 24 -19 25 -26 29 -46 22 -20 -8 -22 -6 -19 13 4 21 4 21 -10 3 -8 -11 -15
-25 -15 -30 -1 -6 -9 4 -19 23 -10 19 -20 30 -22 25z m11 -24 c0 -5 -7 -10
-15 -10 -8 0 -15 -5 -15 -11 0 -5 -5 -7 -11 -3 -8 4 -3 12 12 20 29 16 29 16
29 4z m110 -47 c0 -25 -15 -12 -17 14 -1 19 1 22 8 12 5 -8 9 -20 9 -26z
m-240 3 c0 -2 -7 -7 -16 -10 -8 -3 -12 -2 -9 4 6 10 25 14 25 6z m-36 -78 c-3
-4 -9 -8 -15 -8 -5 0 -9 4 -9 8 0 5 7 9 15 9 8 0 12 -4 9 -9z m-9 -27 c3 -5 2
-12 -3 -15 -5 -3 -9 1 -9 9 0 17 3 19 12 6z m405 -141 c6 -11 8 -20 6 -20 -3
0 -10 9 -16 20 -6 11 -8 20 -6 20 3 0 10 -9 16 -20z m35 -59 c3 -5 2 -12 -3
-15 -5 -3 -9 1 -9 9 0 17 3 19 12 6z m-558 -26 c-4 -8 -11 -15 -17 -15 -6 0
-6 7 2 20 14 22 24 19 15 -5z m-60 -117 c-10 -5 -14 -16 -11 -26 5 -14 4 -14
-4 -3 -12 16 6 53 21 44 5 -3 2 -10 -6 -15z m-81 -160 c5 4 5 3 1 -3 -5 -5
-13 -10 -17 -10 -5 0 -16 -9 -25 -20 -15 -19 -16 -19 -3 5 7 14 11 29 10 34
-2 5 3 4 11 -2 8 -7 18 -8 23 -4z m-19 -60 c2 -17 0 -19 -7 -8 -5 8 -6 18 -4
22 8 12 10 10 11 -14z m934 -51 c-10 -9 -11 -8 -5 6 3 10 9 15 12 12 3 -3 0
-11 -7 -18z m-996 4 c-3 -5 3 -12 12 -14 10 -3 6 -4 -9 -4 -21 1 -24 4 -16 14
12 15 22 18 13 4z m545 -118 c288 -513 812 -1271 1327 -1923 93 -118 280 -348
367 -450 175 -208 460 -534 506 -580 3 -3 50 -54 105 -115 173 -190 242 -261
575 -595 337 -338 426 -424 595 -575 55 -50 102 -92 105 -95 3 -3 68 -60 145
-126 205 -177 441 -364 614 -488 153 -109 168 -122 157 -133 -14 -14 -741 -4
-811 11 -11 2 -50 7 -87 10 -37 4 -77 9 -90 11 -173 29 -235 41 -363 70 -384
88 -449 89 -538 6 -48 -44 -68 -95 -68 -171 0 -109 -3 -105 300 -416 225 -231
453 -472 596 -629 65 -71 135 -148 155 -170 20 -22 85 -96 145 -165 61 -69
114 -130 120 -136 13 -14 68 -76 124 -139 52 -58 224 -245 331 -359 417 -444
801 -823 1098 -1084 123 -108 360 -295 607 -480 121 -91 220 -168 220 -171 0
-7 -143 -37 -217 -45 -130 -14 -438 -18 -543 -7 -359 39 -756 143 -990 260
-145 72 -153 75 -220 66 -75 -9 -153 -58 -185 -115 -44 -80 -25 -196 45 -272
29 -32 128 -170 260 -363 121 -178 153 -222 469 -645 121 -162 324 -435 451
-606 126 -171 244 -329 261 -350 17 -22 87 -109 154 -194 109 -137 395 -487
410 -500 3 -3 50 -59 105 -125 277 -333 310 -369 708 -765 163 -162 297 -301
297 -307 0 -21 -225 -71 -395 -89 -33 -3 -71 -7 -84 -9 -121 -19 -885 -28
-1161 -13 -251 14 -268 16 -585 93 -262 64 -581 155 -662 189 -32 13 -161 75
-288 136 -248 120 -336 160 -358 160 -11 0 -14 17 -11 83 1 45 5 321 9 612 3
292 8 618 10 725 2 107 6 375 10 595 4 220 8 468 10 550 2 83 5 281 6 440 2
330 -1 345 -70 390 -53 35 -111 42 -396 46 -442 6 -6651 4 -6810 -3 -190 -8
-179 -6 -233 -42 -62 -40 -72 -72 -74 -224 -1 -131 10 -914 17 -1127 2 -66 7
-347 11 -625 3 -278 8 -568 9 -645 2 -77 4 -281 6 -453 l2 -313 -79 -33 c-43
-18 -178 -81 -299 -140 -121 -59 -247 -119 -279 -133 -133 -56 -839 -241 -986
-258 -30 -4 -66 -9 -80 -11 -163 -25 -1178 -25 -1330 0 -14 3 -61 7 -105 11
-44 4 -82 8 -85 10 -3 2 -26 6 -50 10 -112 16 -250 55 -250 70 0 5 134 143
297 305 421 418 394 387 942 1045 196 236 430 531 574 725 76 102 285 383 466
625 333 446 482 652 671 926 58 84 127 180 153 213 59 73 77 115 82 181 5 94
-58 173 -169 211 -73 25 -124 14 -257 -54 -193 -99 -472 -180 -814 -239 -139
-23 -189 -27 -375 -27 -118 -1 -255 3 -305 7 -108 9 -261 39 -258 50 2 4 120
95 262 202 223 167 413 315 431 334 3 3 32 29 65 56 136 114 436 396 685 645
294 293 435 441 675 705 117 129 120 131 191 211 405 458 537 606 645 719 32
33 70 74 85 90 15 17 138 145 274 285 390 402 380 389 380 498 0 81 -18 128
-67 173 -86 80 -163 81 -495 4 -191 -45 -392 -82 -493 -90 -44 -4 -83 -9 -86
-11 -13 -8 -251 -17 -479 -18 -260 -1 -340 2 -340 14 0 5 39 37 88 71 347 249
650 500 1052 868 130 120 749 736 880 876 65 69 265 288 295 321 6 6 28 31 50
55 39 42 227 257 271 309 12 14 50 59 85 100 659 770 1361 1742 1760 2437 35
62 66 113 70 113 3 0 25 -35 49 -77z m-583 42 c0 -8 -5 -11 -10 -8 -6 4 -8 -1
-4 -11 4 -9 3 -14 -2 -11 -5 3 -12 1 -16 -5 -3 -5 0 -10 7 -10 8 0 6 -5 -5
-11 -9 -6 -15 -14 -12 -18 2 -5 -2 -14 -10 -21 -8 -7 -12 -17 -8 -23 3 -5 1
-7 -5 -4 -13 9 -10 30 7 51 7 9 10 16 7 16 -4 0 5 16 20 35 30 40 31 40 31 20z
m1118 -34 c3 -5 2 -12 -3 -15 -5 -3 -9 1 -9 9 0 17 3 19 12 6z m-1210 -130
c-9 -8 -36 -10 -30 -2 2 4 11 8 20 8 8 0 13 -3 10 -6z m1300 -21 c3 -6 -1 -7
-9 -4 -18 7 -21 14 -7 14 6 0 13 -4 16 -10z m-1390 -129 c3 -5 2 -12 -3 -15
-5 -3 -9 1 -9 9 0 17 3 19 12 6z m-79 -136 c-3 -23 -12 -26 -13 -5 -1 11 2 20
7 20 4 0 7 -7 6 -15z m1634 11 c0 -2 -8 -10 -17 -17 -16 -13 -17 -12 -4 4 13
16 21 21 21 13z m-1963 -433 c-4 -3 -2 -12 4 -19 10 -12 7 -12 -30 -5 -5 1 20
31 27 31 3 0 2 -3 -1 -7z m-36 -67 c-7 -8 -10 -20 -6 -25 3 -7 0 -8 -9 -5 -14
5 -13 9 2 29 9 13 19 21 21 19 2 -2 -2 -10 -8 -18z m26 -11 c0 -8 -4 -12 -9
-9 -5 3 -6 10 -3 15 9 13 12 11 12 -6z m2333 -20 c19 -22 8 -25 -12 -3 -10 10
-14 18 -9 18 5 0 14 -7 21 -15z m-2430 -89 c0 -3 -4 -8 -10 -11 -5 -3 -10 -1
-10 4 0 6 5 11 10 11 6 0 10 -2 10 -4z m-130 -182 c0 -8 -19 -13 -24 -6 -3 5
1 9 9 9 8 0 15 -2 15 -3z m-27 -29 c4 -8 1 -17 -5 -21 -7 -5 -8 -2 -3 6 6 10
4 12 -10 6 -15 -5 -16 -4 -5 9 15 19 16 19 23 0z m-178 -255 c-3 -5 -12 -10
-18 -10 -7 0 -6 4 3 10 19 12 23 12 15 0z m-40 -9 c3 -5 2 -12 -3 -15 -5 -3
-9 1 -9 9 0 17 3 19 12 6z m-50 -81 c4 -6 3 -10 -2 -9 -20 3 -27 -2 -13 -12
12 -8 11 -9 -5 -7 -12 2 -19 -2 -17 -10 1 -8 -2 -11 -9 -6 -9 5 -10 2 -6 -9 4
-12 2 -14 -10 -10 -12 5 -14 3 -8 -7 6 -9 4 -11 -4 -6 -13 8 2 31 44 68 24 21
22 20 30 8z m3445 -144 c0 -2 -7 -7 -16 -10 -8 -3 -12 -2 -9 4 6 10 25 14 25
6z m-3580 -50 c-7 -7 -13 -7 -20 0 -6 6 -3 10 10 10 13 0 16 -4 10 -10z m-39
-19 c-6 -8 -7 -17 -3 -21 4 -4 0 -6 -8 -4 -8 2 -14 -3 -12 -10 1 -8 -2 -11 -7
-8 -5 4 -17 -1 -25 -10 -9 -8 -16 -12 -16 -8 0 8 69 74 77 74 3 0 0 -6 -6 -13z
m-205 -249 c4 -7 3 -8 -4 -4 -16 10 -15 -7 1 -23 10 -11 8 -11 -10 0 -16 10
-19 16 -11 26 13 16 15 16 24 1z m4154 -73 c11 -13 10 -14 -4 -9 -9 3 -16 10
-16 15 0 13 6 11 20 -6z m45 -44 c3 -5 2 -12 -3 -15 -5 -3 -9 1 -9 9 0 17 3
19 12 6z m-4314 -54 c-10 -9 -11 -8 -5 6 3 10 9 15 12 12 3 -3 0 -11 -7 -18z
m-48 -31 c4 -11 1 -13 -10 -9 -12 5 -14 3 -8 -7 5 -9 4 -11 -4 -6 -9 6 -9 11
0 22 14 17 16 17 22 0z m-104 -119 c0 -9 -2 -8 -6 1 -2 6 -9 9 -14 6 -6 -3 -5
-12 3 -22 12 -15 11 -16 -5 -3 -13 10 -15 17 -6 27 12 15 29 10 28 -9z m4672
-50 c-6 -8 -7 -18 -3 -22 4 -5 1 -5 -6 -1 -10 6 -10 11 -1 22 6 8 14 14 16 14
3 0 0 -6 -6 -13z m-4757 -36 c3 -5 -1 -14 -8 -20 -12 -10 -14 -9 -11 6 2 10 4
19 4 21 2 5 10 2 15 -7z m4841 -51 c-3 -5 -12 -10 -18 -10 -7 0 -6 4 3 10 19
12 23 12 15 0z m-5055 -205 c0 -2 -9 -3 -19 -2 -11 0 -18 5 -15 9 4 6 34 0 34
-7z m5330 -125 c0 -5 -5 -10 -11 -10 -5 0 -7 5 -4 10 3 6 8 10 11 10 2 0 4 -4
4 -10z m94 -79 c-4 -3 -9 0 -11 7 -3 6 -10 9 -15 6 -7 -4 -8 -2 -4 5 6 9 11 9
22 0 8 -6 12 -15 8 -18z m-5594 -1 c0 -5 -5 -10 -11 -10 -5 0 -7 5 -4 10 3 6
8 10 11 10 2 0 4 -4 4 -10z m-69 -93 c-10 -9 -11 -8 -5 6 3 10 9 15 12 12 3
-3 0 -11 -7 -18z m5749 -2 c0 -8 -4 -15 -10 -15 -5 0 -7 7 -4 15 4 8 8 15 10
15 2 0 4 -7 4 -15z m-6111 -319 c9 -11 9 -16 -1 -22 -7 -4 -10 -4 -6 1 4 4 3
14 -3 22 -6 7 -9 13 -6 13 2 0 10 -6 16 -14z m6567 -139 c1 -9 -2 -15 -7 -11
-5 3 -7 9 -4 14 3 4 0 11 -5 13 -6 3 -5 4 1 3 7 -1 13 -10 15 -19z m100 -103
c1 -9 0 -13 -4 -10 -3 4 -7 14 -8 22 -1 9 0 13 4 10 3 -4 7 -14 8 -22z m-6995
-83 c-6 -10 -7 -21 -4 -25 3 -3 1 -6 -5 -6 -7 0 -12 3 -12 6 0 9 20 44 26 44
2 0 0 -8 -5 -19z m-125 -133 c5 -7 3 -8 -6 -3 -10 6 -12 4 -7 -8 4 -12 2 -14
-10 -10 -12 5 -14 3 -8 -7 5 -9 4 -11 -4 -6 -6 4 -14 0 -17 -8 -3 -9 -10 -13
-15 -10 -5 3 -9 -3 -10 -13 0 -12 -2 -14 -6 -4 -5 11 -7 11 -14 0 -6 -10 -9
-10 -9 -2 0 7 10 18 22 24 12 6 33 22 47 35 30 28 28 27 37 12z m7380 -44 c1
-9 0 -13 -4 -10 -3 4 -7 14 -8 22 -1 9 0 13 4 10 3 -4 7 -14 8 -22z m29 -4 c3
-5 1 -10 -4 -10 -6 0 -11 5 -11 10 0 6 2 10 4 10 3 0 8 -4 11 -10z m55 -61 c0
-5 -4 -9 -8 -9 -5 0 -9 7 -9 15 0 8 4 12 9 9 4 -3 8 -9 8 -15z m34 -17 c2 -4
-5 -9 -17 -9 -17 -2 -19 0 -7 7 18 12 18 12 24 2z m-7679 -31 c3 -5 2 -12 -3
-15 -5 -3 -9 1 -9 9 0 17 3 19 12 6z m-35 -51 c0 -5 -5 -10 -11 -10 -5 0 -7 5
-4 10 3 6 8 10 11 10 2 0 4 -4 4 -10z m7798 -25 c-3 -3 -9 2 -12 12 -6 14 -5
15 5 6 7 -7 10 -15 7 -18z m-7964 -120 c-4 -8 -8 -15 -10 -15 -2 0 -4 7 -4 15
0 8 4 15 10 15 5 0 7 -7 4 -15z m-117 -69 c0 -8 -6 -12 -14 -9 -7 3 -10 9 -7
14 8 14 21 11 21 -5z m8336 -27 c-9 -9 -12 -7 -10 9 1 14 5 18 11 12 7 -7 6
-14 -1 -21z m-8388 -32 c6 -5 3 -7 -7 -4 -9 3 -24 -3 -34 -14 -12 -14 -13 -19
-4 -19 7 0 11 -3 7 -6 -3 -3 -11 -3 -17 1 -7 4 -2 16 12 34 13 16 25 26 28 22
3 -3 10 -10 15 -14z m29 11 c-3 -4 -11 -5 -19 -1 -21 7 -19 12 4 10 11 0 18
-5 15 -9z m8551 -118 c3 -6 -1 -7 -9 -4 -18 7 -21 14 -7 14 6 0 13 -4 16 -10z
m-8725 -17 c0 -3 -7 -3 -15 1 -9 3 -19 -3 -26 -15 -6 -11 -13 -18 -16 -15 -10
10 28 45 43 39 8 -3 14 -7 14 -10z m-106 -65 c-3 -4 -9 -8 -15 -8 -5 0 -9 4
-9 8 0 5 7 9 15 9 8 0 12 -4 9 -9z m8976 -23 c11 -13 10 -14 -4 -9 -9 3 -16
10 -16 15 0 13 6 11 20 -6z m-9005 -35 c-3 -5 -12 -10 -18 -10 -7 0 -6 4 3 10
19 12 23 12 15 0z m9025 6 c0 -2 -7 -7 -16 -10 -8 -3 -12 -2 -9 4 6 10 25 14
25 6z m23 -19 c3 -8 -1 -14 -8 -14 -7 0 -11 6 -8 14 3 7 6 13 8 13 2 0 5 -6 8
-13z m-9096 -12 c0 -8 -4 -12 -9 -9 -5 3 -6 10 -3 15 9 13 12 11 12 -6z m-124
-79 c4 -10 0 -12 -15 -8 -15 4 -17 7 -6 13 17 11 15 11 21 -5z m27 4 c0 -5 -2
-10 -4 -10 -3 0 -8 5 -11 10 -3 6 -1 10 4 10 6 0 11 -4 11 -10z m9338 -26 c-4
-3 -12 5 -18 18 -12 22 -12 22 6 6 10 -10 15 -20 12 -24z m-9408 16 c0 -5 -5
-10 -11 -10 -5 0 -7 5 -4 10 3 6 8 10 11 10 2 0 4 -4 4 -10z m9447 -42 c-3 -8
-6 -5 -6 6 -1 11 2 17 5 13 3 -3 4 -12 1 -19z m-9504 -12 c4 -10 1 -13 -8 -9
-8 3 -12 9 -9 14 7 12 11 11 17 -5z m-53 -26 c0 -5 -5 -10 -11 -10 -5 0 -7 5
-4 10 3 6 8 10 11 10 2 0 4 -4 4 -10z m9661 -17 c12 -14 12 -16 0 -8 -11 6
-13 4 -8 -9 4 -9 3 -15 -2 -11 -6 3 -9 14 -8 25 2 24 1 24 18 3z m229 -138 c0
-2 -9 -3 -19 -2 -11 0 -18 5 -15 9 4 6 34 0 34 -7z m47 -40 c0 -8 -4 -12 -9
-9 -5 3 -6 10 -3 15 9 13 12 11 12 -6z m-10286 -18 c-6 -8 -7 -18 -3 -22 4 -5
1 -5 -6 -1 -10 6 -10 11 -1 22 6 8 14 14 16 14 3 0 0 -6 -6 -13z m10408 -61
c-2 -2 -13 8 -23 22 l-19 27 24 -22 c12 -12 21 -24 18 -27z m-10509 -29 c0 -8
-3 -7 -9 2 -7 11 -11 10 -20 -6 -5 -11 -7 -23 -4 -27 3 -3 1 -6 -6 -6 -7 0 -9
-5 -5 -12 5 -8 0 -7 -11 2 -17 14 -18 13 -11 -5 6 -16 5 -18 -5 -7 -10 9 -10
15 -1 24 7 7 12 8 12 3 0 -6 9 5 20 23 19 31 40 36 40 9z m10565 -7 c3 -5 1
-10 -4 -10 -6 0 -11 5 -11 10 0 6 2 10 4 10 3 0 8 -4 11 -10z m66 -77 c13 -16
12 -17 -3 -4 -17 13 -22 21 -14 21 2 0 10 -8 17 -17z m-10686 -243 c1 -10 -2
-17 -6 -14 -4 2 -7 13 -6 24 2 23 10 17 12 -10z m40 -19 c3 -5 2 -12 -3 -15
-5 -3 -9 1 -9 9 0 17 3 19 12 6z m9045 -471 c0 -5 -2 -10 -4 -10 -3 0 -8 5
-11 10 -3 6 -1 10 4 10 6 0 11 -4 11 -10z m-7520 -16 c0 -8 -19 -13 -24 -6 -3
5 1 9 9 9 8 0 15 -2 15 -3z m-56 -63 c-3 -3 -11 -6 -17 -6 -7 -1 -11 -6 -9
-13 1 -7 -5 -15 -13 -18 -8 -3 -12 -11 -8 -17 3 -6 1 -7 -6 -3 -18 12 18 63
44 63 8 0 12 -3 9 -6z m-79 -81 c-10 -11 -23 -20 -28 -20 -13 0 24 39 37 39 5
1 1 -8 -9 -19z m7920 -140 c3 -6 -1 -7 -9 -4 -18 7 -21 14 -7 14 6 0 13 -4 16
-10z m75 -76 c0 -2 -9 0 -20 6 -11 6 -20 13 -20 16 0 2 9 0 20 -6 11 -6 20
-13 20 -16z m-8293 -116 c2 -17 0 -19 -7 -8 -5 8 -6 18 -4 22 8 12 10 10 11
-14z m-39 -53 c-3 -3 -9 2 -12 12 -6 14 -5 15 5 6 7 -7 10 -15 7 -18z m8487
-5 c3 -5 1 -10 -4 -10 -6 0 -11 5 -11 10 0 6 2 10 4 10 3 0 8 -4 11 -10z
m-8540 -49 c3 -5 2 -12 -3 -15 -5 -3 -9 1 -9 9 0 17 3 19 12 6z m-122 -156 c4
-8 3 -16 -1 -19 -4 -3 -9 4 -9 15 -2 23 3 25 10 4z m8885 -60 c-3 -3 -9 2 -12
12 -6 14 -5 15 5 6 7 -7 10 -15 7 -18z m-8918 5 c0 -5 -5 -10 -11 -10 -5 0 -7
5 -4 10 3 6 8 10 11 10 2 0 4 -4 4 -10z m-196 -155 c-4 -8 -11 -15 -16 -15 -6
0 -5 6 2 15 7 8 14 15 16 15 2 0 1 -7 -2 -15z m9351 -94 c3 -5 2 -12 -3 -15
-5 -3 -9 1 -9 9 0 17 3 19 12 6z m55 -57 c0 -2 -7 -4 -15 -4 -8 0 -15 4 -15
10 0 5 7 7 15 4 8 -4 15 -8 15 -10z m55 -64 c3 -6 -1 -7 -9 -4 -18 7 -21 14
-7 14 6 0 13 -4 16 -10z m-9658 -32 c2 -17 0 -19 -7 -8 -5 8 -6 18 -4 22 8 12
10 10 11 -14z m28 3 c3 -5 2 -12 -3 -15 -5 -3 -9 1 -9 9 0 17 3 19 12 6z
m9666 -18 c13 -16 12 -17 -3 -4 -17 13 -22 21 -14 21 2 0 10 -8 17 -17z m59
-54 c0 -5 -4 -9 -8 -9 -5 0 -9 7 -9 15 0 8 4 12 9 9 4 -3 8 -9 8 -15z m-9850
-18 c0 -6 -5 -13 -10 -16 -6 -4 -8 -10 -5 -15 6 -10 -24 -22 -37 -14 -5 3 0
16 13 30 23 25 39 31 39 15z m10044 -177 c3 -8 2 -12 -4 -9 -6 3 -10 10 -10
16 0 14 7 11 14 -7z m23 -36 c-3 -8 -6 -5 -6 6 -1 11 2 17 5 13 3 -3 4 -12 1
-19z m-10282 -18 c4 -6 1 -9 -7 -8 -7 2 -12 -2 -11 -9 2 -8 -4 -10 -14 -6 -12
5 -14 3 -8 -7 6 -9 4 -11 -5 -5 -10 6 -8 12 9 27 27 21 28 21 36 8z m10355
-36 c0 -8 -19 -13 -24 -6 -3 5 1 9 9 9 8 0 15 -2 15 -3z m-10495 -113 c3 -5 2
-12 -3 -15 -5 -3 -9 1 -9 9 0 17 3 19 12 6z m-45 -33 c11 -22 10 -22 -4 -4 -9
11 -16 14 -16 8 0 -7 -5 -12 -11 -12 -8 0 -8 5 1 15 16 19 17 19 30 -7z
m10700 -12 c0 -2 -8 -10 -17 -17 -16 -13 -17 -12 -4 4 13 16 21 21 21 13z
m-10705 -26 c-3 -5 -12 -10 -18 -10 -7 0 -6 4 3 10 19 12 23 12 15 0z m10782
-46 c-3 -3 -12 -4 -19 -1 -8 3 -5 6 6 6 11 1 17 -2 13 -5z m-10904 -31 c-4
-10 -16 -30 -29 -45 -19 -23 -23 -25 -28 -11 -6 16 11 36 25 28 3 -3 11 7 17
20 13 28 25 34 15 8z m-103 -89 c0 -10 -6 -14 -15 -10 -8 3 -15 1 -15 -4 0 -6
-5 -10 -12 -10 -6 0 -3 9 7 20 22 24 35 26 35 4z m11243 -102 c14 -15 15 -19
2 -19 -8 0 -12 4 -9 9 3 4 0 8 -5 8 -6 0 -11 5 -11 10 0 14 5 13 23 -8z
m-11396 -33 c-9 -6 -14 -16 -11 -22 4 -7 3 -8 -1 -4 -17 15 -12 33 9 34 19 2
19 1 3 -8z m-82 -79 c4 -6 3 -10 -2 -9 -20 3 -27 -2 -13 -11 13 -8 12 -10 -3
-10 -11 0 -15 -4 -11 -12 4 -7 3 -8 -5 -4 -11 7 -8 18 12 44 12 15 14 15 22 2z
m-40 -60 c4 -6 -1 -7 -11 -3 -13 5 -15 3 -9 -7 5 -9 4 -11 -4 -6 -6 4 -9 12
-6 17 8 12 22 12 30 -1z m11729 -19 c-4 -3 -9 0 -11 7 -3 6 -10 9 -15 6 -7 -4
-8 -2 -4 5 6 9 11 9 22 0 8 -6 12 -15 8 -18z m31 -31 c-3 -5 -12 -10 -18 -10
-7 0 -6 4 3 10 19 12 23 12 15 0z m140 -110 c10 -11 16 -20 13 -20 -3 0 -13 9
-23 20 -10 11 -16 20 -13 20 3 0 13 -9 23 -20z m202 -155 c0 -8 -4 -12 -9 -9
-5 3 -6 10 -3 15 9 13 12 11 12 -6z m-12567 -15 c0 -5 -5 -10 -11 -10 -5 0 -7
5 -4 10 3 6 8 10 11 10 2 0 4 -4 4 -10z m12625 -21 c11 -16 1 -19 -13 -3 -7 8
-8 14 -3 14 5 0 13 -5 16 -11z m-12625 -9 c0 -5 -5 -10 -11 -10 -5 0 -7 5 -4
10 3 6 8 10 11 10 2 0 4 -4 4 -10z m-43 -15 c0 -8 -4 -12 -9 -9 -5 3 -6 10 -3
15 9 13 12 11 12 -6z m-63 -75 c-6 -6 -10 -3 -10 10 0 13 4 16 10 10 7 -7 7
-13 0 -20z m12886 -10 c0 -5 -5 -10 -11 -10 -5 0 -7 5 -4 10 3 6 8 10 11 10 2
0 4 -4 4 -10z m95 -70 c3 -5 1 -10 -4 -10 -6 0 -11 5 -11 10 0 6 2 10 4 10 3
0 8 -4 11 -10z m-13175 -24 c0 -8 -4 -18 -10 -21 -6 -4 -7 1 -3 11 5 13 3 15
-7 9 -9 -5 -11 -4 -6 3 10 17 26 15 26 -2z m13190 0 c0 -3 -4 -8 -10 -11 -5
-3 -10 -1 -10 4 0 6 5 11 10 11 6 0 10 -2 10 -4z m-13230 -30 c0 -3 -4 -8 -10
-11 -5 -3 -10 -1 -10 4 0 6 5 11 10 11 6 0 10 -2 10 -4z m13335 -26 c3 -5 1
-10 -4 -10 -6 0 -11 5 -11 10 0 6 2 10 4 10 3 0 8 -4 11 -10z m-13498 -87 c0
-9 -4 -10 -14 -2 -7 6 -13 12 -13 14 0 1 6 2 13 2 8 0 14 -6 14 -14z m-17 -17
c0 -2 -7 -7 -16 -10 -8 -3 -12 -2 -9 4 6 10 25 14 25 6z m-43 -19 c0 -8 -6
-14 -14 -14 -9 0 -10 4 -2 14 6 7 12 13 14 13 1 0 2 -6 2 -13z m-37 -67 c0 -5
-5 -10 -11 -10 -5 0 -7 5 -4 10 3 6 8 10 11 10 2 0 4 -4 4 -10z m9783 -629
l418 -1 -5 -377 c-7 -463 -18 -1160 -31 -1938 -2 -121 -7 -440 -11 -710 -4
-269 -8 -535 -9 -590 -2 -55 -3 -166 -4 -247 l-1 -148 -267 5 c-282 5 -697 11
-1403 21 -234 3 -506 7 -605 9 -229 5 -1710 5 -1955 0 -102 -2 -369 -6 -595
-9 -380 -6 -653 -10 -1382 -21 -155 -2 -284 -1 -287 3 -4 7 -13 451 -31 1642
-7 469 -15 969 -20 1245 -2 138 -7 445 -11 682 l-6 433 173 2 c164 3 5133 2
6032 -1z m-7913 -45 c0 -2 -8 -10 -17 -17 -16 -13 -17 -12 -4 4 13 16 21 21
21 13z m-97 -80 c4 -11 1 -13 -10 -9 -12 5 -14 3 -8 -7 5 -9 4 -11 -4 -6 -9 6
-9 11 0 22 14 17 16 17 22 0z m10258 -29 c-10 -9 -11 -8 -5 6 3 10 9 15 12 12
3 -3 0 -11 -7 -18z m34 -17 c3 -5 1 -10 -4 -10 -6 0 -11 5 -11 10 0 6 2 10 4
10 3 0 8 -4 11 -10z m-10383 -77 c-6 -3 -9 -10 -6 -15 5 -7 2 -8 -6 -3 -9 6
-10 1 -5 -16 5 -18 4 -20 -4 -9 -9 13 -12 12 -25 -5 -9 -11 -16 -17 -16 -13 0
13 63 79 69 72 3 -4 0 -9 -7 -11z m-35 -85 c-3 -8 -6 -5 -6 6 -1 11 2 17 5 13
3 -3 4 -12 1 -19z m-26 -41 c-10 -9 -11 -8 -5 6 3 10 9 15 12 12 3 -3 0 -11
-7 -18z m10584 3 c3 -6 -1 -7 -9 -4 -18 7 -21 14 -7 14 6 0 13 -4 16 -10z
m-10717 -130 c-7 -10 -14 -17 -17 -15 -4 4 18 35 25 35 2 0 -1 -9 -8 -20z
m10809 1 c0 -11 -5 -18 -9 -15 -4 3 -5 11 -1 19 7 21 12 19 10 -4z m-10837
-31 c0 -5 -5 -10 -11 -10 -5 0 -7 5 -4 10 3 6 8 10 11 10 2 0 4 -4 4 -10z
m-35 -59 c3 -5 2 -12 -3 -15 -5 -3 -9 1 -9 9 0 17 3 19 12 6z m10994 -55 c9
-10 8 -15 -2 -19 -8 -3 -13 3 -13 14 0 23 0 23 15 5z m-11060 -49 c0 -9 -2 -8
-6 1 -2 6 -10 9 -15 6 -7 -4 -8 -2 -4 5 9 13 26 5 25 -12z m-19 -17 c0 -5 -2
-10 -4 -10 -3 0 -8 5 -11 10 -3 6 -1 10 4 10 6 0 11 -4 11 -10z m-35 -40 c4
-6 1 -9 -7 -8 -7 2 -12 -3 -10 -10 1 -8 -2 -11 -8 -7 -8 5 -7 11 1 21 14 17
16 17 24 4z m-55 -113 c8 -4 4 -5 -10 -4 -14 1 -25 -4 -26 -10 -3 -23 -4 -24
-15 -18 -7 5 -5 13 5 24 9 10 13 22 9 26 -5 5 -1 4 7 -1 8 -6 22 -14 30 -17z
m-54 -49 c4 -7 3 -8 -4 -4 -7 4 -12 1 -12 -8 0 -9 -4 -16 -10 -16 -12 0 -9 22
5 32 13 10 13 10 21 -4z m11464 -56 c0 -5 -7 -9 -15 -9 -8 0 -12 4 -9 9 3 4 9
8 15 8 5 0 9 -4 9 -8z m100 -143 c0 -6 -4 -7 -10 -4 -5 3 -10 11 -10 16 0 6 5
7 10 4 6 -3 10 -11 10 -16z m-11723 -44 c0 -8 -4 -12 -9 -9 -5 3 -6 10 -3 15
9 13 12 11 12 -6z m11757 -15 c-6 -6 -10 -3 -10 10 0 13 4 16 10 10 7 -7 7
-13 0 -20z m26 -20 c0 -5 -5 -10 -11 -10 -5 0 -7 5 -4 10 3 6 8 10 11 10 2 0
4 -4 4 -10z m68 -101 c-3 -8 -7 -3 -11 10 -4 17 -3 21 5 13 5 -5 8 -16 6 -23z
m-11988 -19 c0 -5 -2 -10 -4 -10 -3 0 -8 5 -11 10 -3 6 -1 10 4 10 6 0 11 -4
11 -10z m12048 -45 c-3 -3 -9 2 -12 12 -6 14 -5 15 5 6 7 -7 10 -15 7 -18z
m-12136 -42 c-6 -2 -10 -9 -6 -14 3 -5 0 -9 -6 -9 -6 0 -8 -5 -4 -12 4 -7 3
-8 -4 -4 -15 9 3 46 21 45 9 0 9 -2 -1 -6z m33 -13 c-3 -5 -12 -10 -18 -10 -7
0 -6 4 3 10 19 12 23 12 15 0z m-102 -84 c4 -10 1 -13 -8 -9 -8 3 -12 9 -9 14
7 12 11 11 17 -5z m32 4 c3 -6 -1 -7 -9 -4 -18 7 -21 14 -7 14 6 0 13 -4 16
-10z m12302 -42 c-3 -8 -6 -5 -6 6 -1 11 2 17 5 13 3 -3 4 -12 1 -19z m-12496
-201 c-10 -9 -11 -8 -5 6 3 10 9 15 12 12 3 -3 0 -11 -7 -18z m12699 -27 c6
-11 8 -20 6 -20 -3 0 -10 9 -16 20 -6 11 -8 20 -6 20 3 0 10 -9 16 -20z
m-12747 -4 c4 -11 1 -13 -10 -9 -12 5 -14 3 -8 -7 5 -9 4 -11 -4 -6 -9 6 -9
11 0 22 14 17 16 17 22 0z m-146 -168 c-7 -10 -16 -18 -21 -18 -4 0 -3 6 3 13
6 8 9 16 6 19 -3 2 1 5 9 5 11 0 12 -4 3 -19z m-27 -56 c0 -5 -7 -9 -15 -9 -8
0 -12 4 -9 9 3 4 9 8 15 8 5 0 9 -4 9 -8z m13114 -1 c4 -5 -3 -7 -14 -4 -23 6
-26 13 -6 13 8 0 17 -4 20 -9z m-13220 -107 c3 -8 2 -12 -4 -9 -6 3 -10 10
-10 16 0 14 7 11 14 -7z m13371 -94 c-3 -5 -12 -10 -18 -10 -7 0 -6 4 3 10 19
12 23 12 15 0z m-13462 -23 c7 3 8 2 4 -3 -5 -5 -14 -9 -20 -9 -7 -1 -11 -7
-9 -14 1 -7 -2 -10 -8 -6 -6 4 -5 13 3 26 6 10 13 15 15 9 2 -6 9 -7 15 -3z
m-136 -153 c-3 -3 -12 -4 -19 -1 -8 3 -5 6 6 6 11 1 17 -2 13 -5z m13775 -21
c-6 -2 -9 -10 -6 -15 4 -7 2 -8 -5 -4 -13 9 -5 26 12 25 9 0 8 -2 -1 -6z m58
-59 c0 -8 -19 -13 -24 -6 -3 5 1 9 9 9 8 0 15 -2 15 -3z m45 -44 c3 -6 -1 -7
-9 -4 -18 7 -21 14 -7 14 6 0 13 -4 16 -10z m360 -369 c-6 -5 -25 10 -25 20 0
5 6 4 14 -3 8 -7 12 -15 11 -17z m-14721 11 c3 -5 -1 -9 -9 -9 -8 0 -15 4 -15
9 0 4 4 8 9 8 6 0 12 -4 15 -8z m-59 -82 c-3 -5 -12 -10 -18 -10 -7 0 -6 4 3
10 19 12 23 12 15 0z m14905 -40 c12 -7 10 -9 -8 -7 -12 0 -22 5 -22 9 0 11
12 10 30 -2z m-15019 -47 c13 -16 12 -17 -3 -4 -17 13 -22 21 -14 21 2 0 10
-8 17 -17z m15126 -55 c17 -18 20 -27 12 -38 -9 -13 -10 -13 -6 1 7 21 -11 39
-32 32 -14 -4 -14 -3 -1 6 8 6 11 11 5 12 -24 2 -47 8 -53 14 -4 3 7 4 23 1
16 -3 39 -16 52 -28z m-15223 -38 c-13 -21 -20 -26 -26 -17 -7 11 -12 2 -9
-16 1 -5 -3 -6 -9 -2 -8 5 -7 11 1 21 6 8 14 12 17 9 3 -3 11 4 19 15 22 31
26 24 7 -10z m15310 -38 c3 -5 -1 -9 -9 -9 -8 0 -12 4 -9 9 3 4 7 8 9 8 2 0 6
-4 9 -8z m-15427 -67 c0 -8 -4 -12 -9 -9 -5 3 -6 10 -3 15 9 13 12 11 12 -6z
m15488 5 c3 -6 -1 -7 -9 -4 -18 7 -21 14 -7 14 6 0 13 -4 16 -10z m70 -88 c-3
-3 -11 0 -18 7 -9 10 -8 11 6 5 10 -3 15 -9 12 -12z m-15777 -157 c-3 -3 -9 2
-12 12 -6 14 -5 15 5 6 7 -7 10 -15 7 -18z m15982 -65 c6 -11 7 -20 2 -20 -6
0 -12 9 -15 20 -3 11 -3 20 -1 20 2 0 8 -9 14 -20z m-16023 -124 c0 -8 -6 -12
-15 -9 -11 5 -11 7 0 14 7 5 13 9 14 9 0 0 1 -6 1 -14z m12741 -191 c-3 -3 -9
2 -12 12 -6 14 -5 15 5 6 7 -7 10 -15 7 -18z m-8448 -15 c0 -5 -5 -10 -11 -10
-5 0 -7 5 -4 10 3 6 8 10 11 10 2 0 4 -4 4 -10z m10 -64 c0 -2 -7 -7 -16 -10
-8 -3 -12 -2 -9 4 6 10 25 14 25 6z m-8 -44 c-7 -2 -9 -9 -6 -14 4 -7 2 -8 -4
-4 -6 4 -9 13 -6 21 4 8 11 12 17 8 8 -5 7 -8 -1 -11z m7538 -92 c6 -11 9 -20
8 -20 -2 0 -11 9 -21 20 -9 11 -13 20 -7 20 5 0 14 -9 20 -20z m-7728 -22 c-6
-6 -12 -6 -17 3 -5 8 -4 10 3 5 7 -4 12 0 13 11 0 12 2 13 6 5 3 -8 1 -18 -5
-24z m58 17 c-7 -9 -15 -13 -19 -10 -3 3 1 10 9 15 21 14 24 12 10 -5z m7744
-5 c8 -10 6 -10 -9 -3 -11 6 -25 8 -32 6 -6 -2 -14 0 -17 5 -8 13 45 6 58 -8z
m-7973 -7 c11 -15 11 -16 -1 -6 -9 9 -17 9 -26 2 -8 -7 -14 -6 -20 2 -4 8 -3
9 4 5 7 -4 12 -2 12 3 0 17 16 13 31 -6z m8020 -6 c-10 -9 -11 -8 -5 6 3 10 9
15 12 12 3 -3 0 -11 -7 -18z m349 -41 c0 -6 -7 -3 -14 6 -7 10 -17 14 -21 10
-5 -4 -5 -1 -1 6 6 10 11 10 22 1 8 -6 14 -17 14 -23z m-8617 7 c-6 -15 -23
-17 -23 -3 0 6 -8 2 -18 -7 -11 -10 -17 -22 -14 -27 3 -5 0 -6 -7 -2 -8 5 -6
14 10 30 23 24 60 30 52 9z m8644 2 c0 -8 -4 -12 -9 -9 -5 3 -6 10 -3 15 9 13
12 11 12 -6z m58 -55 c-3 -5 -1 -10 6 -10 7 0 10 -3 6 -6 -9 -9 -28 6 -22 17
4 5 8 9 11 9 3 0 2 -4 -1 -10z m35 -44 c0 -3 -4 -8 -10 -11 -5 -3 -10 -1 -10
4 0 6 5 11 10 11 6 0 10 -2 10 -4z m-8856 -72 c3 -8 2 -12 -4 -9 -6 3 -10 10
-10 16 0 14 7 11 14 -7z m6706 -189 c761 -6 1453 -15 1490 -19 14 -2 37 -4 53
-5 15 0 27 -5 27 -10 0 -5 -45 -102 -101 -215 l-101 -206 -3648 0 -3649 0 -81
168 c-116 237 -123 252 -119 257 16 15 231 19 1874 30 484 4 882 9 885 11 5 5
2253 -2 3370 -11z m-6590 -105 c0 -5 -5 -10 -11 -10 -5 0 -7 5 -4 10 3 6 8 10
11 10 2 0 4 -4 4 -10z m35 -60 c3 -5 1 -10 -4 -10 -6 0 -11 5 -11 10 0 6 2 10
4 10 3 0 8 -4 11 -10z m12 -62 c-3 -8 -6 -5 -6 6 -1 11 2 17 5 13 3 -3 4 -12
1 -19z m28 -28 c3 -6 -1 -7 -9 -4 -18 7 -21 14 -7 14 6 0 13 -4 16 -10z m118
-245 c-7 -21 -12 -19 -10 4 0 11 5 18 9 15 4 -3 5 -11 1 -19z m117 -221 c0 -8
-19 -13 -24 -6 -3 5 1 9 9 9 8 0 15 -2 15 -3z"/>
<path d="M8186 11089 c-545 -58 -1026 -378 -1280 -851 -72 -134 -150 -341
-170 -453 -37 -201 -39 -441 -7 -617 46 -254 157 -509 306 -704 73 -95 251
-270 350 -344 95 -71 346 -198 463 -234 183 -57 323 -77 512 -75 314 3 586 80
848 241 98 60 175 121 281 223 251 243 410 533 472 865 33 179 -2 159 278 159
255 0 252 1 259 -49 31 -242 130 -505 269 -715 89 -134 310 -356 442 -444 500
-332 1123 -374 1651 -111 181 90 285 166 443 326 186 188 310 389 393 642 67
203 95 475 70 692 -45 405 -262 807 -580 1074 -235 198 -586 347 -881 374
-489 45 -958 -115 -1306 -445 -203 -194 -347 -428 -443 -725 l-43 -133 -273 0
-273 0 -37 115 c-62 194 -118 317 -209 455 -295 450 -790 725 -1326 739 -71 2
-166 0 -209 -5z m374 -489 c468 -85 846 -461 934 -930 19 -100 20 -314 2 -420
-27 -165 -113 -365 -215 -501 -132 -174 -341 -325 -556 -401 -118 -42 -197
-53 -390 -53 -167 0 -187 2 -280 28 -272 76 -484 219 -644 436 -112 151 -201
368 -218 530 -10 95 -7 284 5 366 58 363 333 713 680 865 99 44 216 77 306 86
33 4 63 8 65 10 8 7 252 -5 311 -16z m3810 -10 c192 -39 321 -98 476 -218 227
-175 369 -404 430 -694 22 -103 24 -333 5 -433 -85 -433 -380 -767 -799 -905
-118 -39 -205 -49 -392 -45 -176 3 -267 22 -410 82 -257 110 -470 311 -596
563 -84 167 -114 319 -110 545 4 180 26 287 89 434 108 247 337 479 591 596
94 44 231 83 315 91 36 4 68 8 70 10 11 10 246 -9 331 -26z"/>
<path d="M8209 10435 c-66 -21 -245 -115 -342 -179 -170 -113 -293 -249 -372
-409 -65 -132 -88 -233 -88 -387 0 -147 14 -210 77 -345 62 -131 109 -200 193
-282 183 -179 423 -289 650 -297 145 -5 284 29 446 110 379 189 591 556 498
859 -91 294 -283 457 -556 472 -233 12 -419 -76 -552 -264 -75 -105 -100 -264
-56 -349 45 -84 140 -137 233 -128 90 9 157 62 201 160 31 68 57 92 112 101
60 9 101 -11 131 -66 14 -27 26 -63 26 -80 0 -93 -123 -218 -288 -293 -108
-50 -234 -50 -342 -1 -60 28 -155 99 -193 147 -48 57 -95 158 -103 218 -9 66
19 182 63 256 88 149 273 296 453 358 139 48 189 193 110 317 -51 81 -187 118
-301 82z"/>
<path d="M12015 10406 c-309 -119 -590 -355 -696 -585 -129 -279 -110 -591 53
-843 47 -72 189 -222 264 -278 158 -118 426 -201 602 -185 273 23 613 221 762
442 74 111 129 287 124 394 -11 220 -166 466 -349 553 -216 102 -489 66 -674
-89 -136 -114 -216 -304 -181 -429 26 -93 120 -167 218 -172 104 -5 173 41
229 152 43 87 76 114 139 114 51 0 90 -28 115 -84 25 -55 24 -84 -7 -142 -32
-61 -98 -123 -186 -176 -99 -59 -176 -81 -269 -76 -157 9 -328 128 -404 281
-72 145 -47 286 78 452 47 63 106 117 191 175 65 44 174 100 195 100 22 0 82
38 109 69 40 47 55 89 50 150 -11 160 -186 245 -363 177z"/>
<path d="M5285 9350 c-10 -11 -14 -20 -9 -20 5 0 15 9 22 20 7 11 11 20 9 20
-2 0 -12 -9 -22 -20z"/>
<path d="M10865 6332 c-72 -35 -38 9 -990 -1297 -49 -68 -178 -244 -285 -390
-257 -350 -328 -454 -339 -490 -15 -53 -5 -142 23 -189 76 -130 259 -160 361
-57 32 31 100 119 282 366 24 33 200 274 391 536 191 261 453 620 582 797 312
428 304 415 303 508 0 64 -4 81 -29 121 -43 69 -109 107 -193 111 -49 2 -76
-2 -106 -16z"/>
<path d="M11537 6262 c-101 -32 -169 -126 -169 -234 0 -77 24 -117 165 -271
61 -67 116 -127 122 -133 5 -6 42 -45 80 -85 70 -73 321 -340 426 -452 30 -32
54 -62 54 -67 0 -4 -111 -122 -246 -261 -135 -140 -261 -270 -280 -290 -19
-20 -63 -67 -99 -105 -124 -130 -135 -148 -138 -234 -3 -67 -1 -81 25 -130 38
-72 100 -112 184 -118 107 -8 118 0 406 291 143 144 314 318 379 385 66 68
154 161 197 205 94 98 120 148 120 232 -1 100 -47 203 -135 295 -18 20 -87 94
-153 165 -66 71 -133 143 -150 160 -16 18 -86 92 -155 165 -116 124 -288 305
-387 407 -71 74 -162 102 -246 75z"/>
<path d="M8775 6246 c-30 -14 -72 -48 -105 -83 -30 -33 -114 -123 -186 -199
-73 -77 -149 -157 -169 -179 -21 -22 -97 -103 -169 -179 -235 -251 -263 -280
-314 -340 -107 -123 -144 -268 -94 -377 9 -21 46 -68 81 -106 128 -136 349
-363 595 -612 270 -273 298 -294 388 -292 136 3 228 99 228 239 0 109 16 89
-519 640 -135 140 -246 257 -246 262 0 8 48 61 259 285 186 197 258 273 292
311 16 17 74 80 129 139 55 59 112 126 127 149 47 70 54 159 18 228 -31 61
-58 87 -115 114 -66 31 -134 31 -200 0z"/>
<path d="M10179 17363 c-13 -17 -13 -17 6 -3 11 8 22 16 24 17 2 2 0 3 -6 3
-6 0 -17 -8 -24 -17z"/>
<path d="M9025 15539 c3 -4 -2 -9 -10 -13 -8 -3 -15 -10 -15 -15 0 -15 24 -4
37 18 9 14 8 18 -3 18 -7 0 -11 -4 -9 -8z"/>
<path d="M8715 15120 c4 -6 11 -8 16 -5 14 9 11 15 -7 15 -8 0 -12 -5 -9 -10z"/>
<path d="M8230 14518 c0 -4 4 -8 9 -8 6 0 12 4 15 8 3 5 -1 9 -9 9 -8 0 -15
-4 -15 -9z"/>
<path d="M7739 13946 c-1 -3 -3 -10 -4 -16 -1 -5 -3 -13 -4 -17 -1 -5 -5 -2
-10 5 -7 11 -9 11 -14 -1 -4 -10 0 -14 11 -12 9 2 20 4 23 4 12 2 18 30 9 36
-6 4 -11 4 -11 1z"/>
<path d="M12855 13800 c3 -5 8 -10 11 -10 2 0 4 5 4 10 0 6 -5 10 -11 10 -5 0
-7 -4 -4 -10z"/>
<path d="M7377 13534 c2 -7 11 -10 19 -7 19 7 18 10 -5 16 -13 3 -18 1 -14 -9z"/>
<path d="M6293 12488 c1 -7 -4 -12 -11 -10 -8 1 -11 -2 -7 -8 5 -8 11 -8 21 1
7 6 11 15 8 20 -8 13 -14 11 -11 -3z"/>
<path d="M6212 12406 c-1 -15 1 -17 7 -7 5 7 15 17 22 22 10 6 8 8 -7 7 -12
-1 -21 -10 -22 -22z"/>
<path d="M6136 12362 c-3 -4 4 -9 15 -9 23 -2 25 3 4 10 -8 4 -16 3 -19 -1z"/>
<path d="M14830 11961 c0 -6 4 -11 9 -11 5 0 23 -12 40 -26 17 -14 31 -22 31
-17 -1 12 -80 66 -80 54z"/>
<path d="M5493 11845 c0 -8 4 -12 9 -9 5 3 6 10 3 15 -9 13 -12 11 -12 -6z"/>
<path d="M5315 11740 c-3 -5 -5 -10 -3 -11 27 -6 39 -5 45 4 3 7 3 9 -2 5 -4
-4 -14 -3 -21 3 -8 7 -14 7 -19 -1z"/>
<path d="M6630 10829 c0 -5 5 -7 10 -4 6 3 10 8 10 11 0 2 -4 4 -10 4 -5 0
-10 -5 -10 -11z"/>
<path d="M6525 10730 c3 -5 -1 -11 -7 -14 -7 -2 -3 -4 9 -2 31 3 38 12 13 19
-11 3 -18 1 -15 -3z"/>
<path d="M6184 10353 c4 -7 2 -13 -3 -13 -6 0 -11 -4 -11 -8 0 -5 6 -9 14 -9
15 0 16 21 1 34 -4 4 -5 2 -1 -4z"/>
<path d="M5444 9532 c3 -5 0 -13 -6 -15 -9 -4 -10 -6 -1 -6 17 -1 25 16 12 25
-7 4 -9 3 -5 -4z"/>
<path d="M5195 9280 c-3 -5 -1 -10 4 -10 6 0 11 5 11 10 0 6 -2 10 -4 10 -3 0
-8 -4 -11 -10z"/>
<path d="M4955 9040 c-3 -5 -1 -10 4 -10 6 0 11 5 11 10 0 6 -2 10 -4 10 -3 0
-8 -4 -11 -10z"/>
<path d="M4836 8913 c-6 -14 -5 -15 5 -6 7 7 10 15 7 18 -3 3 -9 -2 -12 -12z"/>
<path d="M4130 8286 c7 -7 14 -6 21 1 9 9 7 12 -9 10 -14 -1 -18 -5 -12 -11z"/>
<path d="M4040 8231 c-8 -6 -18 -7 -24 -4 -5 3 -6 1 -2 -5 5 -9 13 -9 27 -2
10 6 19 13 19 15 0 7 -3 6 -20 -4z"/>
<path d="M4940 6710 c-8 -5 -12 -12 -9 -15 4 -3 12 1 19 10 14 17 11 19 -10 5z"/>
<path d="M4436 6033 c-6 -14 -5 -15 5 -6 7 7 10 15 7 18 -3 3 -9 -2 -12 -12z"/>
<path d="M4395 5989 c-4 -6 -5 -12 -2 -15 2 -3 7 2 10 11 7 17 1 20 -8 4z"/>
<path d="M3906 5359 c2 -4 -2 -9 -8 -12 -7 -2 -10 -7 -7 -11 3 -3 13 2 22 12
14 15 15 19 2 19 -8 0 -12 -4 -9 -8z"/>
<path d="M3189 4518 c-5 -18 -6 -38 -1 -34 7 8 12 36 6 36 -2 0 -4 -1 -5 -2z"/>
<path d="M3115 4440 c-3 -5 -1 -10 4 -10 6 0 11 5 11 10 0 6 -2 10 -4 10 -3 0
-8 -4 -11 -10z"/>
<path d="M3024 4353 c4 -7 2 -13 -3 -13 -6 0 -11 -4 -11 -8 0 -5 6 -9 14 -9
15 0 16 21 1 34 -4 4 -5 2 -1 -4z"/>
<path d="M2413 3768 c0 -13 1 -17 4 -10 3 6 9 10 14 7 5 -4 6 1 3 9 -9 23 -20
19 -21 -6z"/>
<path d="M2328 3710 c-10 -11 -14 -21 -10 -24 12 -7 27 7 30 27 4 21 2 20 -20
-3z"/>
<path d="M5984 2978 c4 -18 28 -16 34 2 4 13 3 13 -10 2 -11 -9 -18 -9 -21 -2
-3 6 -4 5 -3 -2z"/>
</g>
</svg>
